<svg data-name="Layer 1" xmlns="http://www.w3.org/2000/svg" width="970" height="796" viewBox="0 0 970 796"><circle cx="917" cy="200" r="53" fill="#ccc" opacity=".3"/><circle cx="917" cy="200" r="30" fill="#34318f"/><circle cx="882" cy="53" r="53" fill="#ccc" opacity=".3"/><circle cx="882" cy="53" r="30" fill="#34318f"/><circle cx="53" cy="253" r="53" fill="#ccc" opacity=".3"/><circle cx="53" cy="253" r="30" fill="#34318f"/><circle cx="100" cy="665" r="53" fill="#ccc" opacity=".3"/><circle cx="100" cy="665" r="30" fill="#34318f"/><circle cx="172" cy="100" r="53" fill="#ccc" opacity=".3"/><circle cx="172" cy="100" r="30" fill="#34318f"/><path d="M868 431c0 178.34-127.91 326.81-297 358.67-.66.13-1.33.25-2 .37q-15.765 2.895-32 4.39c-.67.07-1.33.13-2 .18q-15.81 1.38-32 1.39c-.67 0-1.33 0-2-.01q-16.17-.075-32-1.56c-.67-.05-1.33-.12-2-.19q-16.215-1.575-32-4.57c-.67-.12-1.34-.25-2-.38C264.9 756.64 138 608.64 138 431c0-201.58 163.42-365 365-365s365 163.42 365 365z" fill="#3f3d56"/><path fill="#34318f" d="M570 274.5h2V571h-2zm0-127.098h2v87.472h-2zm-137-9.127h2V571h-2zM467 100h2v97.457h-2zm0 144h2v296.638h-2zm2 342.75v207.68c-.67-.05-1.33-.12-2-.19V586.75zM501 68h2v275.347h-2zm2 313.52V796c-.67 0-1.33 0-2-.01V381.52zM535 100h2v382h-2zm0 423h2v214.173h-2zm2 259.53v11.9c-.67.07-1.33.13-2 .18v-12.08zM571 623v166.67c-.66.13-1.33.25-2 .37V623zm-136 0v166.67c-.67-.12-1.34-.25-2-.38V623zm-36-446h2v62.41h-2zm0 109.275h2V571h-2zM365 200h2v371h-2zm-34 30h2v120.905h-2zm0 160.968h2V571h-2zM297 262h2v201.536h-2zm0 239h2v70h-2zm-34-209h2v67.599h-2zm0 111.819h2V571h-2zM229 308h2v263h-2zm-34 72h2v86.937h-2zm0 126.622h2V571h-2zM590.375 177h1.037v377h-1.037zM637 200h2v59.441h-2zm0 99.126h2V571h-2zM671 257h2v35h-2zm0 74.252h2V505.11h-2zm0 209.386h2V571h-2zM705 262h2v309h-2zm34 30h2v98.968h-2zm0 136.386h2V571h-2zM773 308h2v263h-2z"/><path d="M434 624a10 10 0 1110-10 10.012 10.012 0 01-10 10zm0-18a8 8 0 108 8 8.01 8.01 0 00-8-8zm34-34a10 10 0 1110-10 10.012 10.012 0 01-10 10zm0-18a8 8 0 108 8 8.01 8.01 0 00-8-8zm103 70a10 10 0 1110-10 10.012 10.012 0 01-10 10zm0-18a8 8 0 108 8 8.01 8.01 0 00-8-8zm-35 143a10 10 0 1010 10 10.016 10.016 0 00-10-10zm0 18a8 8 0 118-8 8.01 8.01 0 01-8 8zm0-256a10 10 0 1110-10 10.012 10.012 0 01-10 10zm0-18a8 8 0 108 8 8.01 8.01 0 00-8-8zm-34-121a10 10 0 1110-10 10.011 10.011 0 01-10 10zm68-109a10 10 0 1110-10 10.011 10.011 0 01-10 10zm0-18a8 8 0 108 8 8.01 8.01 0 00-8-8zM332 381a10 10 0 1110-10 10.011 10.011 0 01-10 10zm0-18a8 8 0 108 8 8.01 8.01 0 00-8-8zm-68 27a10 10 0 1110-10 10.011 10.011 0 01-10 10zm0-18a8 8 0 108 8 8.01 8.01 0 00-8-8zm34 120a10 10 0 1110-10 10.011 10.011 0 01-10 10zm273-344a10 10 0 1110-10 10.011 10.011 0 01-10 10zm0-18a8 8 0 108 8 8.01 8.01 0 00-8-8zM400 272a10 10 0 1110-10 10.011 10.011 0 01-10 10zm0-18a8 8 0 108 8 8.01 8.01 0 00-8-8zm-34-53a10 10 0 1110-10 10.011 10.011 0 01-10 10zm0-18a8 8 0 108 8 8.01 8.01 0 00-8-8zM196 497a10 10 0 1110-10 10.012 10.012 0 01-10 10zm0-18a8 8 0 108 8 8.01 8.01 0 00-8-8zm608-99h2v86.937h-2zm0 126.622h2V571h-2zm1-9.622a10 10 0 1110-10 10.012 10.012 0 01-10 10zm0-18a8 8 0 108 8 8.01 8.01 0 00-8-8zm-65-61a10 10 0 1110-10 10.011 10.011 0 01-10 10zm0-18a8 8 0 108 8 8.01 8.01 0 00-8-8zm-68 133a10 10 0 1110-10 10.012 10.012 0 01-10 10zm0-18a8 8 0 108 8 8.01 8.01 0 00-8-8zM468 231a10 10 0 1110-10 10.011 10.011 0 01-10 10zm204 91a10 10 0 1110-10 10.011 10.011 0 01-10 10zm0-18a8 8 0 108 8 8.01 8.01 0 00-8-8zm68-11a10 10 0 1110-10 10.011 10.011 0 01-10 10zm-102-5a10 10 0 1110-10 10.011 10.011 0 01-10 10z" fill="#34318f"/><path fill="#2f2e41" d="M918 288.017L738.983 285l.034-2L916 285.983V200h2v88.017zm-279.077-9.631l-1.846-.772L731.334 52H882v2H732.666l-93.743 224.386zM503 363H52V254h2v107h449v2zm-35-141H169V100h2v120h297v2zM299 666H100v-2h197V481h2v185z"/></svg>