<svg data-name="Layer 1" xmlns="http://www.w3.org/2000/svg" width="643" height="447.57" viewBox="0 0 643 447.57"><path d="M613.072 87.063H29.928A29.962 29.962 0 010 57.135V29.928A29.962 29.962 0 0129.928 0h583.144A29.962 29.962 0 01643 29.928v27.207a29.962 29.962 0 01-29.928 29.928zM29.928 1.813A28.146 28.146 0 001.814 29.929v27.207A28.146 28.146 0 0029.928 85.25h583.144a28.146 28.146 0 0028.114-28.115V29.928a28.146 28.146 0 00-28.114-28.114z" fill="#3f3d56"/><rect x="57.135" y="26.3" width="421.714" height="34.463" rx="17.231" fill="#e6e6e6"/><rect x="107.922" y="177.43" width="421.714" height="34.463" rx="17.231" fill="#21188c"/><rect x="107.922" y="287.004" width="421.714" height="34.463" rx="17.231" fill="#e6e6e6"/><rect x="107.922" y="396.578" width="421.714" height="34.463" rx="17.231" fill="#e6e6e6"/><path d="M586.312 62.147a2.714 2.714 0 01-3.78.667L567.726 52.51a2.714 2.714 0 113.113-4.446l14.807 10.302a2.714 2.714 0 01.666 3.78z" fill="#21188c"/><path d="M569.502 50.442a19.267 19.267 0 11-4.731-26.833 19.289 19.289 0 014.731 26.833zm-27.619-19.339a14.45 14.45 0 1020.125-3.549 14.466 14.466 0 00-20.125 3.55z" fill="#21188c"/><path d="M596.294 228.332H46.706a.907.907 0 110-1.814h549.588a.907.907 0 110 1.814zm0 109.62H46.706a.907.907 0 010-1.814h549.588a.907.907 0 010 1.814zm0 109.618H46.706a.907.907 0 010-1.814h549.588a.907.907 0 110 1.814z" fill="#3f3d56"/></svg>