<svg data-name="Layer 1" xmlns="http://www.w3.org/2000/svg" width="929.013" height="743.5" viewBox="0 0 929.013 743.5"><path d="M928.996 692.594a381.146 381.146 0 01-3.593 48.975c-.08.57-.165 1.14-.244 1.71l-153.448-.857a63.117 63.117 0 01-1.323-1.72 72.954 72.954 0 01-4.008-5.932c-5.925-9.834-8.637-21.347-5.92-29.29l.05-.123a13.939 13.939 0 012.72-4.727c6.197-6.976 18.726-5.813 30.096-.183-10.198-11.163-18.318-25.25-18.935-37.823-.605-12.264 5.808-21.025 12.763-28.47.228-.247.457-.486.685-.725.11-.123.228-.24.338-.363 5.427-5.674 11.754-11.267 20.911-10.59 10.044.743 21.179 9.155 28.986 18.958 7.808 9.796 12.996 20.925 18.255 31.785 5.266 10.854 10.963 21.985 19.413 31.263-11.445-14.476-20.672-30.947-24.08-46.965s-.41-31.404 9.79-38.948a23.857 23.857 0 0110.45-4.216c.44-.074.887-.133 1.34-.185 9.443-1.075 20.717 2.19 30.309 9.997 10.563 8.595 17.887 21.336 21.53 33.432 3.644 12.096 4.032 23.74 3.915 34.997z" fill="#f2f2f2"/><path d="M828.601 742.74l-2.934-.017q-1.398-.874-2.808-1.727c-.582-.367-1.171-.721-1.76-1.082q-14.6-8.916-29.382-17.105-14.768-8.196-29.685-15.636a1.23 1.23 0 01-.707-1.406.354.354 0 01.049-.103c.139-.26.449-.369.901-.146 1.22.611 2.447 1.223 3.666 1.848q14.958 7.568 29.787 15.891 14.82 8.32 29.47 17.374c.205.125.41.257.616.381.931.576 1.856 1.152 2.787 1.727zm37.833.21l-1.814-.01c-.41-.572-.812-1.145-1.22-1.717q-14.423-20.225-28.84-40.45-23.608-33.11-47.202-66.22a1.169 1.169 0 01-.204-.4c-.134-.488.225-.775.685-.724a1.378 1.378 0 01.958.61q13.236 18.568 26.466 37.123l46.964 65.882c.995 1.394 1.991 2.795 2.987 4.189.409.572.818 1.145 1.22 1.718zm40.422-10.536a155.59 155.59 0 01-.56 9.048l-.153 1.71-1.904-.01c.059-.57.117-1.14.168-1.71.402-4.307.688-8.663.726-13.137a183.261 183.261 0 00-3.607-36.94 230 230 0 00-11.174-38.377 263.557 263.557 0 00-18.282-37.97 1.014 1.014 0 01-.168-.675c.078-.543.8-.704 1.34-.185a1.576 1.576 0 01.274.345q1.317 2.265 2.586 4.543A263.374 263.374 0 01893.6 657.16a228.913 228.913 0 0110.417 38.435 180.8 180.8 0 012.84 36.82z" fill="#fff"/><path d="M628.948 716.35a199.18 199.18 0 01-1.878 25.593c-.04.298-.085.595-.127.893l-80.188-.448a38.123 38.123 0 01-2.786-3.999c-3.096-5.138-4.514-11.155-3.093-15.306l.025-.064a7.284 7.284 0 011.422-2.47c3.238-3.645 9.786-3.038 15.728-.096-5.33-5.833-9.573-13.194-9.896-19.765-.316-6.409 3.035-10.987 6.67-14.878.12-.129.238-.254.358-.379.058-.064.119-.125.177-.19 2.836-2.964 6.142-5.887 10.927-5.534 5.249.389 11.068 4.785 15.148 9.908 4.08 5.119 6.791 10.934 9.54 16.61 2.751 5.672 5.728 11.489 10.144 16.337-5.98-7.565-10.803-16.172-12.584-24.543s-.214-16.41 5.116-20.353a12.467 12.467 0 015.461-2.204c.23-.038.464-.069.701-.096 4.934-.562 10.826 1.145 15.838 5.224a36.46 36.46 0 0111.252 17.47c1.904 6.322 2.107 12.407 2.045 18.29z" fill="#f2f2f2"/><path d="M576.484 742.554l-1.533-.008q-.73-.457-1.468-.903c-.304-.192-.612-.377-.92-.565q-7.629-4.66-15.353-8.939-7.718-4.283-15.513-8.171a.643.643 0 01-.37-.735.185.185 0 01.026-.053c.072-.137.234-.193.47-.077.638.32 1.28.64 1.917.966q7.816 3.955 15.566 8.304 7.744 4.348 15.4 9.08c.107.065.214.134.322.199l1.456.902zm19.771.111l-.948-.005c-.214-.3-.424-.599-.638-.898q-7.537-10.57-15.07-21.138-12.338-17.303-24.667-34.605a.61.61 0 01-.107-.21c-.07-.255.117-.404.358-.378a.72.72 0 01.5.319l13.831 19.4 24.542 34.428 1.561 2.189c.214.3.428.599.638.898zm21.124-5.506a81.304 81.304 0 01-.293 4.728l-.08.894-.995-.006c.03-.298.06-.596.088-.894.21-2.25.36-4.526.38-6.864a95.768 95.768 0 00-1.886-19.304 120.193 120.193 0 00-5.84-20.056 137.728 137.728 0 00-9.553-19.842.53.53 0 01-.088-.353c.041-.283.419-.367.701-.096a.824.824 0 01.143.18q.688 1.184 1.351 2.375a137.633 137.633 0 019.144 19.912 119.623 119.623 0 015.444 20.085 94.48 94.48 0 011.484 19.24z" fill="#fff"/><path d="M165.953 404.324H15.673A15.69 15.69 0 010 388.65V208.137a15.69 15.69 0 0115.672-15.673h150.281a15.69 15.69 0 0115.673 15.673V388.65a15.69 15.69 0 01-15.673 15.673zm-150.28-209.86A13.688 13.688 0 002 208.137V388.65a13.688 13.688 0 0013.672 13.673h150.281a13.688 13.688 0 0013.673-13.673V208.137a13.688 13.688 0 00-13.673-13.673z" fill="#3f3d56"/><path d="M125.942 207.303H55.683a12.514 12.514 0 01-12.5-12.5v-2.678a12.514 12.514 0 0112.5-12.5h70.26a12.514 12.514 0 0112.5 12.5v2.678a12.514 12.514 0 01-12.5 12.5z" fill="#ccc"/><path d="M159.729 305.508H21.897a7.114 7.114 0 110-14.228H159.73a7.114 7.114 0 010 14.228zm0 30.234H21.897a7.114 7.114 0 110-14.228H159.73a7.114 7.114 0 010 14.228zm-36.904-60.468H58.8a7.114 7.114 0 110-14.228h64.025a7.114 7.114 0 110 14.228z" fill="#21188c"/><path d="M485.189 224.698H334.908a15.69 15.69 0 01-15.672-15.672V28.51a15.69 15.69 0 0115.672-15.673h150.28a15.69 15.69 0 0115.673 15.673v180.515a15.69 15.69 0 01-15.672 15.672zM334.908 14.838a13.688 13.688 0 00-13.672 13.673v180.515a13.688 13.688 0 0013.672 13.672h150.28a13.688 13.688 0 0013.673-13.672V28.51a13.688 13.688 0 00-13.672-13.673z" fill="#3f3d56"/><path d="M445.178 27.677h-70.259a12.514 12.514 0 01-12.5-12.5V12.5a12.514 12.514 0 0112.5-12.5h70.259a12.514 12.514 0 0112.5 12.5v2.677a12.514 12.514 0 01-12.5 12.5z" fill="#ccc"/><path d="M478.964 125.882H341.133a7.114 7.114 0 110-14.228h137.831a7.114 7.114 0 110 14.228zm0 30.234H341.133a7.114 7.114 0 110-14.228h137.831a7.114 7.114 0 110 14.228zM442.06 95.648h-64.024a7.114 7.114 0 110-14.228h64.025a7.114 7.114 0 010 14.228z" fill="#21188c"/><path d="M791.79 528.844l-131.958 71.914a15.69 15.69 0 01-21.26-6.261l-86.383-158.505a15.69 15.69 0 016.262-21.261l131.957-71.914a15.69 15.69 0 0121.261 6.262l86.382 158.504a15.69 15.69 0 01-6.262 21.261zM559.407 416.487a13.688 13.688 0 00-5.463 18.548l86.382 158.505a13.688 13.688 0 0018.548 5.462l131.957-71.914a13.688 13.688 0 005.463-18.548l-86.382-158.504a13.688 13.688 0 00-18.548-5.463z" fill="#3f3d56"/><path d="M662.376 374.992l-61.692 33.621a12.514 12.514 0 01-16.957-4.994l-1.282-2.35a12.514 12.514 0 014.995-16.958l61.692-33.621a12.514 12.514 0 0116.957 4.994l1.282 2.351a12.514 12.514 0 01-4.995 16.957zm76.661 70.064l-121.025 65.956a7.114 7.114 0 11-6.809-12.493l121.026-65.956a7.114 7.114 0 016.808 12.493zm14.468 26.547L632.48 537.56a7.114 7.114 0 11-6.809-12.493l121.026-65.957a7.114 7.114 0 016.808 12.493zm-61.339-35.435l-56.219 30.637a7.114 7.114 0 11-6.808-12.493l56.218-30.638a7.114 7.114 0 116.809 12.493z" fill="#ccc"/><path fill="#3f3d56" d="M208.92 204.284l70.288-40.81 1.004 1.73-70.288 40.81z"/><path fill="#3f3d56" d="M282.194 174.428l9.928-17.296-19.943.047 10.015 17.249zm205.039 257.514a.995.995 0 01-.457-.11L216.628 293.059a1 1 0 01.913-1.78l270.15 138.773a1 1 0 01-.458 1.89z"/><path fill="#3f3d56" d="M480.081 438.479L500 437.5l-10.805-16.762-9.114 17.741z"/><path d="M765.974 546.682a10.743 10.743 0 01-3.842-16.018l-8.033-78.54h17.36l6.384 76.69a10.8 10.8 0 01-11.87 17.868z" fill="#a0616a"/><circle cx="750.034" cy="384.218" r="24.561" fill="#a0616a"/><path d="M744.445 497.758l-36.656-8.005a4.511 4.511 0 01-3.534-4.165c-.424-8.18-.728-29.34 5.573-49.093a29.748 29.748 0 0138.227-18.951 29.762 29.762 0 0116.9 41.09c-8.128 16.693-13.248 28.78-15.216 35.93a4.492 4.492 0 01-5.294 3.194z" fill="#21188c"/><path fill="#a0616a" d="M709.913 731.092l-12.26-.001-5.832-47.288 18.094.001-.002 47.288z"/><path d="M688.896 727.588h23.644v14.887h-38.531a14.887 14.887 0 0114.887-14.887z" fill="#2f2e41"/><path fill="#a0616a" d="M832.504 715.203l-10.743 5.906-27.895-38.627 15.856-8.718 22.782 41.439z"/><path d="M812.4 722.258l20.719-11.39 7.172 13.045-33.765 18.563a14.887 14.887 0 015.874-20.218zm-102.264-17.426l-18.873-1.454a4.488 4.488 0 01-4.134-4.05c-2.69-28.055-14.491-170.227 17.426-214l.09-.121.142-.053c.286-.105 28.75-10.255 45.082 8.347a4.498 4.498 0 01.866 4.376l-.623 1.87a3.485 3.485 0 00.496 3.172c4.532 6.127 19.786 29.725 25.782 76.128a3.466 3.466 0 00.226.862l44.264 108.737a4.5 4.5 0 01-2.566 5.901l-13.928 5.307a4.525 4.525 0 01-5.543-2.034l-63.899-115.93a2.5 2.5 0 00-4.668.885l-15.332 118.148a4.5 4.5 0 01-4.459 3.921 5.13 5.13 0 01-.349-.012z" fill="#2f2e41"/><path d="M654.55 412.748a10.527 10.527 0 01.24 1.64l42.957 24.782 10.441-6.01 11.131 14.572-17.45 12.437a8 8 0 01-9.598-.234l-44.297-34.945a10.497 10.497 0 116.576-12.242z" fill="#a0616a"/><path d="M698.337 436.693a4.495 4.495 0 012.211-3.025l19.713-11.023a12.497 12.497 0 0115.327 19.745l-15.717 16.32a4.5 4.5 0 01-6.804-.372l-13.884-17.994a4.495 4.495 0 01-.846-3.65zm51.027 33.983a4.495 4.495 0 01-1.667-3.356l-.707-22.574a12.497 12.497 0 0124.584-4.514l7.25 21.468a4.5 4.5 0 01-3.464 5.868l-22.366 4.038a4.495 4.495 0 01-3.63-.93z" fill="#21188c"/><path d="M746.147 378.569c-6.313 4.32-14.602 8.761-21.05 4.16-4.233-3.02-5.567-8.615-3.85-13.524 3.087-8.829 11.57-12.716 19.68-15.695 10.545-3.873 22.026-6.954 32.912-4.18s20.505 13.312 18.54 24.372c-1.58 8.895-9.97 16.295-8.779 25.25 1.2 9.012 11.334 13.756 20.282 15.367s18.96 2.128 25.39 8.555c8.204 8.199 6.155 22.853-1.563 31.51s-19.367 12.58-30.654 15.247c-14.955 3.534-31.13 5.392-45.332-.474s-25.256-21.654-21.142-36.46c1.738-6.253 5.832-11.539 9.789-16.684s7.963-10.526 9.472-16.839c1.258-5.26.327-11.369-3.162-15.315a4.437 4.437 0 01-.594-5.186z" fill="#2f2e41"/><path d="M926.311 743.5h-381a1 1 0 010-2h381a1 1 0 010 2z" fill="#3f3d56"/></svg>