<svg data-name="Layer 1" xmlns="http://www.w3.org/2000/svg" width="828.078" height="484" viewBox="0 0 828.078 484"><path d="M502.5 269H17a17.02 17.02 0 01-17-17V17A17.02 17.02 0 0117 0h485.5a17.02 17.02 0 0117 17v235a17.02 17.02 0 01-17 17zM17 2A15.017 15.017 0 002 17v235a15.017 15.017 0 0015 15h485.5a15.017 15.017 0 0015-15V17a15.017 15.017 0 00-15-15z" fill="#3f3d56"/><circle cx="93.25" cy="49.5" r="9" fill="#ccc"/><circle cx="93.25" cy="83.5" r="9" fill="#ccc"/><circle cx="93.25" cy="117.5" r="9" fill="#ccc"/><circle cx="93.25" cy="151.5" r="9" fill="#ccc"/><circle cx="244.75" cy="219.5" r="9" fill="#ccc"/><circle cx="179.75" cy="219.5" r="9" fill="#ccc"/><circle cx="378.75" cy="219.5" r="9" fill="#ccc"/><circle cx="310.75" cy="219.5" r="9" fill="#ccc"/><path d="M434.25 50.5h-296a1 1 0 010-2h296a1 1 0 010 2zm0 34h-296a1 1 0 010-2h296a1 1 0 010 2zm0 34h-296a1 1 0 010-2h296a1 1 0 010 2zm0 34h-296a1 1 0 010-2h296a1 1 0 010 2z" fill="#ccc"/><path d="M194.25 186.5h-29a5.006 5.006 0 01-5-5v-27a5.006 5.006 0 015-5h29a5.006 5.006 0 015 5v27a5.006 5.006 0 01-5 5zm65 0h-29a5.006 5.006 0 01-5-5v-61a5.006 5.006 0 015-5h29a5.006 5.006 0 015 5v61a5.006 5.006 0 01-5 5zm66 0h-29a5.006 5.006 0 01-5-5v-95a5.006 5.006 0 015-5h29a5.006 5.006 0 015 5v95a5.006 5.006 0 01-5 5zm68 0h-29a5.006 5.006 0 01-5-5v-128a5.006 5.006 0 015-5h29a5.006 5.006 0 015 5v128a5.006 5.006 0 01-5 5z" fill="#21188c"/><path d="M663.453 478.344c-8.993-7.598-14.455-19.602-13.023-31.288s10.305-22.428 21.814-24.91 24.627 4.388 28.123 15.63c1.924-21.674 4.14-44.257 15.664-62.715 10.434-16.713 28.507-28.672 48.093-30.811s40.208 5.941 52.424 21.4 15.206 37.934 6.65 55.683c-6.302 13.074-17.913 22.805-30.079 30.72A194.13 194.13 0 01660.347 481.1z" fill="#f2f2f2"/><path d="M797.18 350.639a317.625 317.625 0 00-44.265 43.954 318.551 318.551 0 00-49.856 83.314c-.897 2.2 2.675 3.158 3.563.982a316.759 316.759 0 0193.17-125.638c1.844-1.502-.784-4.102-2.613-2.612z" fill="#fff"/><path d="M568.61 203.058a17.509 17.509 0 01-3.386-.34q-.306-.06-.611-.131l-244.897-57.02c-2.66-.62-4.427-2.293-4.11-3.893a2.66 2.66 0 012.039-1.882 7.418 7.418 0 013.622-.08l246.417 51.461c5.549 1.159 9.4 4.564 8.77 7.752-.331 1.668-1.8 2.962-4.138 3.642a13.356 13.356 0 01-3.706.49z" fill="#3f3d56"/><path d="M516.732 195.169a10.056 10.056 0 0014.525-5.175l35.727.745-9.898-15.713-32.41 1.702a10.11 10.11 0 00-7.944 18.44z" fill="#ffb8b8"/><path d="M532.25 189.462l-.186-10.951a4.524 4.524 0 014.068-4.556l64.2-6.195 53.49-17.538a12.819 12.819 0 117.634 24.472l-59.207 17.53-65.387 1.66a4.51 4.51 0 01-4.428-3.213 4.522 4.522 0 01-.184-1.21z" fill="#3f3d56"/><path fill="#ffb8b8" d="M627.258 471.782l-12.26-.001-5.832-47.288 18.094.001-.002 47.288z"/><path d="M630.385 483.666l-39.53-.002v-.5a15.386 15.386 0 0115.386-15.386l24.144.001z" fill="#2f2e41"/><path fill="#ffb8b8" d="M663.258 471.782l-12.26-.001-5.832-47.288 18.094.001-.002 47.288z"/><path d="M666.385 483.666l-39.53-.002v-.5a15.386 15.386 0 0115.386-15.386l24.144.001zm5.101-202.992l-2.927 173.694a4 4 0 01-4.362 3.916l-14.346-1.304a4 4 0 01-3.626-3.675l-8.399-108.345a1 1 0 00-1.996.04l-4.198 110.825a4 4 0 01-3.997 3.849h-15.386a4 4 0 01-3.993-3.756l-10.77-176.244 64-16z" fill="#2f2e41"/><circle cx="625.065" cy="93.016" r="24.561" fill="#ffb8b8"/><path d="M595.295 285.84a4.47 4.47 0 01-1.365-3.164l-1.657-118.442a28.5 28.5 0 0119.282-27.442c2.301-10.44 14.548-11.747 21.688-11.59a11.085 11.085 0 018.977 4.922l5.118 7.677 11.28 6.612a28.528 28.528 0 0113.47 30.817l-1.736 7.899a181.54 181.54 0 001.698 84.66l3.494 13.324a4.5 4.5 0 01-4.698 5.628l-4.058-.312a4.494 4.494 0 01-4.133-4.038l-.671-6.717a.5.5 0 00-.996 0l-.65 6.503a4.5 4.5 0 01-4.408 4.052l-57.431.883-.072.001a4.471 4.471 0 01-3.132-1.272z" fill="#3f3d56"/><path d="M626.986 107.174c.1 3.472 2.511 5.48 5.47 7.3s6.42 2.606 9.808 3.367a2.999 2.999 0 004.406-2.625l3.108-11.823a74.84 74.84 0 002.393-11.537c.749-7.509-1.03-15.587-6.272-21.016s-14.331-7.358-20.612-3.175c-7.453-9.52-41.523 11.513-33.119 18.133 1.495 1.177 3.78-.313 5.679-.457s4.024.19 5.23 1.662c1.575 1.924.889 4.79 1.538 7.191a6.714 6.714 0 008.483 4.348 23.088 23.088 0 004.4-2.828c1.456-.97 3.295-1.686 4.934-1.075 2.16.806 2.927 3.45 3.122 5.748a53.235 53.235 0 001.432 6.787z" fill="#2f2e41"/><path d="M808.931 484h-381a1 1 0 010-2h381a1 1 0 010 2z" fill="#3f3d56"/><path opacity=".2" d="M621.25 173l-4 49-21 51 31-50-6-50z"/><path d="M591.34 291.992a10.056 10.056 0 00.317-15.416l13.379-33.136-18.203 3.676-9.914 30.903a10.11 10.11 0 0014.42 13.973z" fill="#ffb8b8"/><path d="M590.365 277.378l-10.303-3.713a4.524 4.524 0 01-2.815-5.42l16.997-62.22 2.591-56.232a12.819 12.819 0 1125.588 1.551l-4.628 61.574-21.658 61.718a4.509 4.509 0 01-4.576 3 4.522 4.522 0 01-1.196-.258zM434.25 186.5h-296a1 1 0 010-2h296a1 1 0 010 2z" fill="#3f3d56"/></svg>