<svg data-name="Layer 1" xmlns="http://www.w3.org/2000/svg" width="567.17" height="517.31" viewBox="0 0 567.17 517.31"><path fill="#3f3d56" d="M13.55 186.032L488.79 47.567l12.587 43.203L26.138 229.235z"/><path d="M70.33 384.481L.282 144.068a7 7 0 014.762-8.678L468.764.28a7.006 7.006 0 018.678 4.762l62.056 212.99-1.92.559L475.522 5.603a5.009 5.009 0 00-6.2-3.402L5.606 137.31a5 5 0 00-3.402 6.2L72.25 383.923z" fill="#3f3d56"/><path d="M436.862 219.022a6.512 6.512 0 01-6.243-4.683l-11.749-40.323a6.507 6.507 0 014.422-8.06l40.324-11.748a6.507 6.507 0 018.058 4.423l11.749 40.324a6.507 6.507 0 01-4.422 8.058l-40.324 11.749a6.479 6.479 0 01-1.815.26zm-367.616-74.21a11.691 11.691 0 00-.43-1.22 12 12 0 00-22.91 6.67 11.38 11.38 0 00.29 1.26 12.02 12.02 0 0011.53 8.64 11.75 11.75 0 003.35-.48 12.013 12.013 0 008.17-14.87zm-8.73 12.95a10.013 10.013 0 01-12.4-6.8 11.435 11.435 0 01-.28-1.26 9.997 9.997 0 0119.04-5.54 8.338 8.338 0 01.45 1.21 10.004 10.004 0 01-6.81 12.39z" fill="#21188c"/><path d="M39.814 153.382a11.002 11.002 0 014.208-12.057 11 11 0 105.818 19.967 11.002 11.002 0 01-10.026-7.91z" fill="#21188c"/><path d="M350.676 202.942a6.042 6.042 0 00-7.45-4.2l-66.39 18.57-7.15 2h44.9l7.15-2 24.75-6.92a6.049 6.049 0 004.19-7.45zm-46.97-13.87a6.045 6.045 0 00-7.45-4.19l-99.62 27.86a6.068 6.068 0 00-4.37 6.57h25.79l7.16-2 74.3-20.78a6.055 6.055 0 004.19-7.46z" fill="#ccc"/><path d="M560.17 217.31h-483a7.008 7.008 0 00-7 7v286a7.008 7.008 0 007 7h483a7.008 7.008 0 007-7v-286a7.008 7.008 0 00-7-7zm5 293a5.002 5.002 0 01-5 5h-483a5.002 5.002 0 01-5-5v-286a5.002 5.002 0 015-5h483a5.002 5.002 0 015 5z" fill="#3f3d56"/><path d="M124.166 256.312a12 12 0 1112-12 12.014 12.014 0 01-12 12zm0-22a10 10 0 1010 10 10.011 10.011 0 00-10-10z" fill="#21188c"/><path d="M105.514 244.312a11.002 11.002 0 017.413-10.399 11 11 0 100 20.797 11.002 11.002 0 01-7.413-10.398zM172.81 386.09a9.01 9.01 0 01-9-9v-27a9 9 0 0118 0v27a9.01 9.01 0 01-9 9zm24 0a9.01 9.01 0 01-9-9v-27a9 9 0 0118 0v27a9.01 9.01 0 01-9 9zm24 0a9.01 9.01 0 01-9-9v-27a9 9 0 0118 0v27a9.01 9.01 0 01-9 9zm37 0a9.01 9.01 0 01-9-9v-27a9 9 0 0118 0v27a9.01 9.01 0 01-9 9zm24 0a9.01 9.01 0 01-9-9v-27a9 9 0 0118 0v27a9.01 9.01 0 01-9 9zm24 0a9.01 9.01 0 01-9-9v-27a9 9 0 0118 0v27a9.01 9.01 0 01-9 9zm37 0a9.01 9.01 0 01-9-9v-27a9 9 0 0118 0v27a9.01 9.01 0 01-9 9zm24 0a9.01 9.01 0 01-9-9v-27a9 9 0 0118 0v27a9.01 9.01 0 01-9 9zm24 0a9.01 9.01 0 01-9-9v-27a9 9 0 0118 0v27a9.01 9.01 0 01-9 9zm37 0a9.01 9.01 0 01-9-9v-27a9 9 0 0118 0v27a9.01 9.01 0 01-9 9zm24 0a9.01 9.01 0 01-9-9v-27a9 9 0 0118 0v27a9.01 9.01 0 01-9 9zm24 0a9.01 9.01 0 01-9-9v-27a9 9 0 0118 0v27a9.01 9.01 0 01-9 9z" fill="#21188c"/><path d="M233.828 486.257h-129.44a6.047 6.047 0 110-12.095h129.44a6.047 6.047 0 110 12.095zm-41.5-26h-46.44a6.047 6.047 0 110-12.095h46.44a6.047 6.047 0 110 12.095z" fill="#e6e6e6"/><path fill="#3f3d56" d="M71.81 277.09h493v2h-493z"/></svg>