<svg data-name="Layer 1" xmlns="http://www.w3.org/2000/svg" width="767" height="683" viewBox="0 0 767 683"><path d="M551.883 613.126H175.632a48.18 48.18 0 01-48.125-48.125V123.125A48.18 48.18 0 01175.632 75h350.04l74.336 59.25V565a48.18 48.18 0 01-48.125 48.126z" fill="#e6e6e6"/><path d="M175.632 88.854a34.31 34.31 0 00-34.271 34.271v441.876a34.31 34.31 0 0034.27 34.27h376.252a34.31 34.31 0 0034.27-34.27V140.925l-65.327-52.07z" fill="#fff"/><path d="M473.379 217.34H221.077a8.014 8.014 0 110-16.028H473.38a8.014 8.014 0 010 16.028zm33.058 27.047h-285.36a8.014 8.014 0 110-16.028h285.36a8.014 8.014 0 110 16.028z" fill="#ccc"/><path d="M473.379 338.553H221.077a8.014 8.014 0 110-16.028H473.38a8.014 8.014 0 010 16.028z" fill="#21188c"/><path d="M506.437 365.6h-285.36a8.014 8.014 0 110-16.027h285.36a8.014 8.014 0 110 16.028zm-33.058 94.167H221.077a8.014 8.014 0 110-16.028H473.38a8.014 8.014 0 010 16.028zm33.058 27.047h-285.36a8.014 8.014 0 110-16.028h285.36a8.014 8.014 0 110 16.028z" fill="#ccc"/><path d="M598.56 136.157h-58.229a16.028 16.028 0 01-16.028-16.028V77.121a1.002 1.002 0 011.624-.785l73.256 58.034a1.002 1.002 0 01-.622 1.787z" fill="#e6e6e6"/><path d="M233 113A110 110 0 11123 3a110.035 110.035 0 01110 110z" fill="#fff"/><path d="M173.84 131.822c-1.201 70.35-105.847 70.34-107.038-.002 1.201-70.349 105.847-70.338 107.038.002z" fill="#21188c"/><path d="M118.196 153.658l-.055-2c13.784 1.84 16.753-15.243 2.851-8.856l3.174-23.19 1.981.27-2.7 19.727c14.638-2.179 9.224 16.048-5.25 14.05zm17.75-32.074h10.771v2h-10.771zm-34 0h10.771v2h-10.771zm35.724 85.066c2.1-14.17-14.49-11.37-23.27-11.51a9.518 9.518 0 00-9.28 11.5 52.038 52.038 0 00-18.49 10.2 110.476 110.476 0 0070.43.78 51.77 51.77 0 00-19.39-10.97zM95.16 106.509c9.918-5.732 21.946-1.335 32.191 1.07 19.438 5.975 46.697-1.507 49.06-24.663 2.46-21.535-26.998-33.537-36.414-12.103l2.741-.359c-30.536-45.382-83.654-43.66-83.305 18.732-.113 1.927 2.887 1.92 3-.002-1.125-36.766 23.208-61.9 57.605-38.271 7.871 5.743 14.24 13.35 20.11 21.055 3.582 4.015 4.36-13.274 21.506-8.746 18.869 7.31 12.712 34.329-4.154 40.26-20.838 10.646-43.407-9.995-63.855.435a1.502 1.502 0 001.514 2.592z" fill="#2f2e41"/><path d="M123 226a112.905 112.905 0 1134.988-5.527A112.727 112.727 0 01123 226zm0-220a107.015 107.015 0 10107 107A107.121 107.121 0 00123 6z" fill="#ccc"/><path d="M764 339a110.035 110.035 0 01-75.94 104.62c-.66.21-1.32.42-1.99.62-2.86.88-5.76 1.63-8.71 2.27a108.133 108.133 0 01-16.21 2.25q-3.555.24-7.15.24a109.808 109.808 0 01-36.37-6.16c-.34-.12-.68-.24-1.01-.36A110.01 110.01 0 11764 339z" fill="#fff"/><circle cx="651.365" cy="358.36" r="53.519" fill="#21188c"/><path d="M654.489 387.196l.056-2c-3.721-.103-7.001-.337-9.466-2.137a6.148 6.148 0 01-2.382-4.529 3.514 3.514 0 011.153-2.894c1.637-1.382 4.27-.935 6.188-.055l1.655.759-3.173-23.19-1.982.27 2.7 19.727c-2.608-.766-5.024-.436-6.679.961a5.471 5.471 0 00-1.86 4.493 8.133 8.133 0 003.2 6.073c3.167 2.314 7.283 2.43 10.59 2.522zm-28.521-32.074h10.771v2h-10.771zm34 0h10.771v2h-10.771zm6.602 78.058a9.79 9.79 0 00.22-2 9.515 9.515 0 00-9.5-9.5h-14a9.508 9.508 0 00-9.5 9.5 9.239 9.239 0 00.22 2.01 53.738 53.738 0 00-14.81 7.33c-.88.61-1.75 1.27-2.58 1.96.33.12.67.24 1.01.36A109.808 109.808 0 00654 449q3.6 0 7.15-.24a108.133 108.133 0 0016.21-2.25c2.95-.64 5.85-1.39 8.71-2.27a54.198 54.198 0 00-19.5-11.06z" fill="#2f2e41"/><path d="M664.77 447.49a7.359 7.359 0 00-3.62 1.27 108.133 108.133 0 0016.21-2.25zm35.133-101.843l-92.974-34.013a4 4 0 01-2.382-5.13l.315-1.488c7.26-19.848 31.328-32.34 51.176-25.078l28.61 10.466c19.848 7.261 28.475 30.764 21.214 50.612l-.828 2.248a4 4 0 01-5.13 2.383z" fill="#2f2e41"/><path d="M704.911 347.534c-129.587 4.781-140.91-11.5-101.426-37.105l8.377-15.413 96 35z" fill="#2f2e41"/><ellipse cx="887.862" cy="394.016" rx="4.5" ry="8.5" transform="rotate(-73.27 706.656 485.34)" fill="#2f2e41"/><path d="M654 452a112.727 112.727 0 01-37.362-6.329l-1.044-.372a113 113 0 1173.394 1.174c-.711.226-1.38.439-2.06.642a109.12 109.12 0 01-8.932 2.326 111.37 111.37 0 01-16.662 2.313c-2.407.163-4.881.246-7.334.246zm0-220a107.015 107.015 0 00-36.361 207.658l.99.353A106.714 106.714 0 00654 446c2.319 0 4.656-.079 6.948-.233a105.486 105.486 0 0015.778-2.19c2.912-.63 5.76-1.373 8.462-2.204.669-.2 1.304-.402 1.94-.604A107.015 107.015 0 00654 232z" fill="#ccc"/><path d="M3 570a109.667 109.667 0 0032.34 77.91c.86.85 1.74 1.7 2.63 2.53a109.848 109.848 0 0017.46 13.31c1.2.74 2.4 1.45 3.63 2.14a109.38 109.38 0 0019.88 8.73c1.19.39 2.4.76 3.61 1.1a110.454 110.454 0 0066.82-1.88c.42-.15.84-.3 1.25-.45A110.01 110.01 0 103 570z" fill="#fff"/><path d="M89.77 623.916a34.087 34.087 0 01-8.804 23.076c-5.656 6.207-14.076 10.323-22.573 8.62-7.824-1.568-14.182-8.407-13.39-16.68a12.356 12.356 0 0115.268-11.095c7.432 1.93 10.394 12.641 4.2 17.67-1.486 1.206-3.621-.904-2.121-2.122 4.094-3.324 2.83-10.595-2.113-12.419-5.753-2.123-11.85 2.443-12.263 8.326-.49 6.974 4.852 12.226 11.404 13.463 7.088 1.337 14.115-2.29 18.918-7.298a30.955 30.955 0 008.474-21.541 1.5 1.5 0 013 0z" fill="#2f2e41"/><circle cx="119.064" cy="589.468" r="53.519" fill="#21188c"/><path d="M116.326 612.304l-.056-2c3.72-.104 7.001-.337 9.466-2.138a6.148 6.148 0 002.381-4.528 3.514 3.514 0 00-1.152-2.895c-1.637-1.382-4.27-.934-6.188-.055l-1.655.76 3.173-23.191 1.982.271-2.7 19.727c2.608-.767 5.024-.437 6.679.96a5.471 5.471 0 011.86 4.493 8.133 8.133 0 01-3.2 6.073c-3.167 2.315-7.283 2.43-10.59 2.523zm17.75-32.075h10.771v2h-10.771zm-34 0h10.771v2h-10.771zM82.55 675.72a110.454 110.454 0 0066.82-1.88c.42-.15.84-.3 1.25-.45a53.272 53.272 0 00-16.95-8.76 8.528 8.528 0 00-.02-4.7 9.459 9.459 0 00-9.15-6.64h-13.04a9.426 9.426 0 00-9.13 6.63 8.563 8.563 0 00-.02 4.71 53.327 53.327 0 00-15.12 7.41q-1.395.975-2.7 2.04c-.66.53-1.31 1.08-1.94 1.64z" fill="#2f2e41"/><path d="M160.99 583.79c0 9.02 4.44 16.5 10.21 17.8a8.254 8.254 0 001.79.2c6.61 0 12-8.07 12-18 0-5.76-1.81-10.89-4.62-14.18a11.579 11.579 0 00-3.53-2.87 8.367 8.367 0 00-3.85-.95 8.774 8.774 0 00-5.11 1.72c-4.07 2.88-6.89 9.09-6.89 16.28zm-107 0c0 7.76 3.28 14.38 7.88 16.91a8.54 8.54 0 004.12 1.09 7.73 7.73 0 00.96-.06c6.16-.73 11.04-8.49 11.04-17.94 0-7.57-3.13-14.06-7.55-16.71a8.575 8.575 0 00-4.45-1.29 8.367 8.367 0 00-3.85.95 11.644 11.644 0 00-3.54 2.88c-2.8 3.29-4.61 8.42-4.61 14.17z" fill="#3f3d56"/><path d="M62.619 598.974a1.501 1.501 0 001.421-1.98 58.499 58.499 0 11112.687-6.574 1.5 1.5 0 002.936.619 61.5 61.5 0 10-118.466 6.914 1.5 1.5 0 001.422 1.021z" fill="#3f3d56"/><path d="M145.95 554.792c2.119 2.893 1.074 6.791-1.159 9.285-2.906 3.246-7.539 3.45-11.562 2.848-4.514-.676-9.302-2.79-13.873-1.366-3.895 1.215-6.674 4.748-10.72 5.636-3.59.787-7.882-.255-9.14-4.08-.604-1.839 2.292-2.626 2.893-.798.814 2.475 4.329 2.426 6.341 1.74 3.227-1.098 5.714-3.77 8.886-5.047 3.74-1.505 7.796-.826 11.603.032 3.588.808 7.718 2.006 11.293.496 2.645-1.117 4.75-4.635 2.847-7.232-1.142-1.559 1.46-3.057 2.59-1.514z" fill="#2f2e41"/><path d="M113 683a112.792 112.792 0 01-31.282-4.398 91.29 91.29 0 01-3.712-1.13 112.697 112.697 0 01-20.418-8.968 104.26 104.26 0 01-3.732-2.2 113.095 113.095 0 01-17.935-13.672 132.429 132.429 0 01-2.69-2.587 112.99 112.99 0 11118.414 26.164c-.412.151-.84.304-1.266.456A112.739 112.739 0 01113 683zm0-220a107.005 107.005 0 00-75.542 182.786c.83.82 1.69 1.65 2.558 2.46a107.108 107.108 0 0016.986 12.949 98.501 98.501 0 003.526 2.078 106.658 106.658 0 0019.339 8.494 86.34 86.34 0 003.494 1.065 107.453 107.453 0 0065.017-1.823l1.212-.437A107.014 107.014 0 00113 463z" fill="#ccc"/></svg>