<svg data-name="Layer 1" xmlns="http://www.w3.org/2000/svg" width="624.45" height="614.164" viewBox="0 0 624.45 614.164"><path d="M454.81 114.114a554.594 554.594 0 01-4.83 71.29c-.11.83-.23 1.66-.34 2.49H226.36c-.66-.82-1.31-1.65-1.94-2.49-2.1-2.78-4.07-5.64-5.88-8.6-8.7-14.26-12.74-30.99-8.85-42.57l.07-.18a20.282 20.282 0 013.92-6.9c8.96-10.2 27.2-8.61 43.79-.51-14.93-16.16-26.86-36.59-27.86-54.88-.98-17.84 8.28-30.64 18.34-41.53.33-.36.66-.71.99-1.06.16-.18.33-.35.49-.53 7.85-8.3 17.01-16.49 30.34-15.58 14.62 1 30.89 13.15 42.33 27.35 11.44 14.19 19.08 30.34 26.82 46.1 7.75 15.75 16.13 31.9 28.5 45.33-16.77-20.97-30.33-44.86-35.42-68.14s-.85-45.69 13.93-56.75A34.713 34.713 0 01371.1.734c.64-.11 1.29-.2 1.95-.28 13.73-1.64 30.16 3.02 44.18 14.3 15.44 12.42 26.2 30.9 31.6 48.47 5.4 17.57 6.06 34.51 5.98 50.89z" fill="#f2f2f2"/><path d="M309.14 187.894h-4.27q-2.04-1.26-4.1-2.49c-.85-.53-1.71-1.04-2.57-1.56q-21.315-12.855-42.89-24.65-21.555-11.805-43.32-22.51a1.79 1.79 0 01-1.04-2.04.516.516 0 01.07-.15c.2-.38.65-.54 1.31-.22 1.78.88 3.57 1.76 5.35 2.66q21.825 10.89 43.47 22.88 21.63 11.985 43.02 25.04c.3.18.6.37.9.55 1.36.83 2.71 1.66 4.07 2.49zm55.05 0h-2.64c-.6-.83-1.19-1.66-1.79-2.49q-21.15-29.31-42.29-58.62-34.62-47.985-69.22-95.97a1.7 1.7 0 01-.3-.58c-.2-.71.32-1.13.99-1.06a2.006 2.006 0 011.4.88q19.41 26.91 38.81 53.8 34.44 47.745 68.87 95.48c1.46 2.02 2.92 4.05 4.38 6.07.6.83 1.2 1.66 1.79 2.49zm58.73-15.66c-.11 4.45-.38 8.83-.74 13.17l-.21 2.49h-2.77c.08-.83.16-1.66.23-2.49.55-6.27.93-12.61.95-19.12a266.656 266.656 0 00-5.55-53.72 334.665 334.665 0 00-16.57-55.75 383.492 383.492 0 00-26.91-55.1 1.476 1.476 0 01-.25-.98c.11-.79 1.16-1.03 1.95-.28a2.293 2.293 0 01.4.5q1.935 3.285 3.8 6.59a383.227 383.227 0 0125.77 55.3 333.082 333.082 0 0115.47 55.84 263.074 263.074 0 014.43 53.55z" fill="#fff"/><path d="M615.72 185.404h-607a8.728 8.728 0 00-8.72 8.72v411.32a8.728 8.728 0 008.72 8.72h607a8.712 8.712 0 006.63-3.06 2.046 2.046 0 00.19-.24 8.167 8.167 0 001.25-2.11 8.507 8.507 0 00.66-3.31v-411.32a8.73 8.73 0 00-8.73-8.72zm6.24 420.04a6.175 6.175 0 01-1.03 3.42 6.446 6.446 0 01-2.36 2.12 6.184 6.184 0 01-2.85.69h-607a6.238 6.238 0 01-6.23-6.23v-411.32a6.238 6.238 0 016.23-6.23h607a6.24 6.24 0 016.24 6.23z" fill="#3f3d56"/><path fill="#3f3d56" d="M1.243 220.353H623.2v2.493H1.243z"/><circle cx="22.432" cy="204.1" r="7.478" fill="#3f3d56"/><circle cx="43.932" cy="204.1" r="7.478" fill="#3f3d56"/><circle cx="65.433" cy="204.1" r="7.478" fill="#3f3d56"/><path d="M276.977 432.274c-7.48-4.869-11.2-16.184-9.367-26.532s8.735-19.26 17.008-23.104a26.65 26.65 0 0125.228 1.793c7.587 4.64 18.317 7.18 21.92 16.462 2.769 7.133-.743 21.618-4.47 28.546-3.22 5.988-9.34 8.727-15.091 9.918a45.34 45.34 0 01-36.669-8.461z" fill="#2f2e41"/><path fill="#ffb8b8" d="M273.076 487.234l-5.98 10.31-.79 1.36-1.15 2h-17.63l1.19-2 3.08-5.19 7.18-12.12 8.13 3.25 5.97 2.39z"/><path d="M246.206 500.904l-3.22-2-.4-.25 20.21-36.83a13.73 13.73 0 018.25-6.62 13.575 13.575 0 016.78-.25 13.354 13.354 0 013.74 1.4 13.089 13.089 0 011.39.88 13.349 13.349 0 014.1 4.62 13.817 13.817 0 01-.42 13.95l-7.79 12.45-6.66 10.65-1.25 2h-24.73z" fill="#2f2e41"/><circle cx="298.13" cy="420.784" r="24.561" fill="#ffb8b8"/><path d="M322.786 500.904h-55.21l.25-.71q-.21-.645-.39-1.29c-.13-.45-.24-.91-.34-1.36a30.194 30.194 0 01.01-12.7c3.05-14.98 15.22-27.15 15.22-27.15.21-.16.42-.31.63-.46a27.785 27.785 0 015.85-3.28c9.04-3.75 18.52-2.24 24.89-.3a49.67 49.67 0 016.49 2.47c.74.35 1.14.57 1.14.57l.63 19.21.76 23z" fill="#21188c"/><path d="M348.326 498.904l-4.22-21.46-4.26-21.64a4.52 4.52 0 00-3.65-3.57l-8.92-1.54-8.3-1.43a4.46 4.46 0 00-4.31 1.65 4.41 4.41 0 00-.97 2.74 4.52 4.52 0 00.37 1.79c4.33 10.1 4.41 26.09 3.31 43.46-.05.66-.09 1.33-.14 2h31.49zm-59.52-44.95a4.527 4.527 0 00-7.15-2.48l-3.83 3.48-15.68 14.28a4.345 4.345 0 00-1.12 1.59 995.68 995.68 0 00-9.23 22.89l-2.01 5.19c-.24.66-.5 1.33-.76 2h25.84c.21-.67.42-1.34.63-2 1.15-3.63 2.27-7.19 3.35-10.65 3.16-10.05 6.01-19.18 8.21-26.4q.915-3 1.67-5.54a4.528 4.528 0 00.08-2.36z" fill="#2f2e41"/><path fill="#ffb8b8" d="M354.126 500.904h1.67l-.23-.56-.61-1.44-9.41-22.33-1.44.87-11.56 6.99 5.93 14.47.82 2h14.83z"/><path d="M344.586 458.864a13.821 13.821 0 00-17.31-8.17 12.41 12.41 0 00-1.27.5 13.647 13.647 0 00-5.82 4.93 13.205 13.205 0 00-1.43 2.77 13.742 13.742 0 00.31 10.57l2.89 6.44 10.34 23 .9 2h20.93l1.44-.56 3.74-1.44.52-.2zm-27.166-66.289a4.063 4.063 0 004.622-1.754 5.85 5.85 0 00.339-5.143 10.736 10.736 0 00-3.196-4.214 12.406 12.406 0 00-5.617-2.909 7.461 7.461 0 00-6.053 1.33 5.377 5.377 0 00-1.826 5.723c.636 1.845 2.359 3.08 4.079 4a27.094 27.094 0 0011.038 3.138zm4.778 27.475c-3.948.545-3.441-1.465-5.023-5.124s-3.698-8.002-7.667-8.373c-3.253-.303-5.932 2.297-8.567 4.227-4.696 3.442-11.026 5.126-16.47 3.062s-9.226-8.553-7.16-13.996a11.943 11.943 0 016.906-6.53 24.028 24.028 0 019.622-1.336 49.647 49.647 0 0120.864 5.34c4.472 2.273 8.826 5.524 10.523 10.245s2.813 11.354-2.038 12.631z" fill="#2f2e41"/><path d="M315.402 379.591c-1.952-3.397-.34-8.059 2.853-10.329s7.477-2.493 11.288-1.582a22.166 22.166 0 0115.9 15.411c1.617 5.941.656 12.323 2.025 18.326a24.049 24.049 0 0030.223 17.725c4.102-1.204 8.27-4.133 8.674-8.389a23.518 23.518 0 01-13.928 23.549c-5.285 2.205-11.18 2.348-16.905 2.201-3.73-.095-7.546-.32-10.988-1.763a19.667 19.667 0 01-10.333-11.204 31.129 31.129 0 01-1.376-15.435c.564-4.029 1.684-7.977 1.997-12.032s-.28-8.386-2.78-11.594-7.277-4.847-10.831-2.87c-1.429.794-2.581 2.092-4.133 2.605s-3.752-.388-3.611-2.017z" fill="#2f2e41"/><path d="M483.006 500.904l.19-2 5.64-58.68a35.917 35.917 0 015.93-3.77c11.61-5.85 22.81-3.05 28.87-.63a31.591 31.591 0 014.64 2.27l3.3 60.81.11 2z" fill="#21188c"/><circle cx="509.419" cy="400.045" r="24.561" fill="#ffb8b8"/><path d="M529.347 415.021a13.37 13.37 0 00-10.145-22.564c-3.397.114-6.597 1.504-9.838 2.524a32.535 32.535 0 01-15.285 1.376 20.41 20.41 0 01-13.017-7.686c-3.038-4.176-3.986-9.969-1.84-14.667 2.48-5.423 8.268-8.412 13.715-10.84a25.063 25.063 0 016.962-2.287 8.929 8.929 0 016.926 1.746c1.53 1.316 2.428 3.295 4.093 4.435 1.875 1.284 4.31 1.25 6.57 1.477a25.205 25.205 0 0112.209 45.54zm-30.921 31.593l-3.66-10.16-.228-.634a2.104 2.104 0 00-3.147-1.036l-4.155 2.77s-26.65 0-28.79 15.99c-.03.25-.07.53-.1.83a.155.155 0 01-.01.04c-.27 1.05-5.3 20.49-9.62 44.49-.12.66-.24 1.33-.36 2h57.91c1.884-24.11.83-46.525-7.84-54.29zm69.08 52.29c-3.16-24.62-7.68-44.53-7.68-44.53-.04-.3-.08-.58-.11-.83-2.13-15.99-28.78-15.99-28.78-15.99l-4.153-2.769a2.104 2.104 0 00-3.147 1.039l-3.89 10.79c-8.67 7.765-9.724 30.18-7.84 54.289h55.85c-.08-.67-.17-1.34-.25-2z" fill="#2f2e41"/><path d="M98.426 442.844l-5.94 56.06-.21 2h-16.07c.19-.65.38-1.32.58-2 4.56-15.64 10.77-38.47 10.1-44.52-1.05-9.44 6.3-12.59 6.3-12.59l.46.09z" fill="#21188c"/><circle cx="124.343" cy="400.979" r="24.561" fill="#a0616a"/><path d="M156.136 489.004a40.266 40.266 0 00-3.03 7.16c-.29.88-.57 1.8-.83 2.74-.19.65-.36 1.32-.53 2h-64.78c.09-.66.17-1.33.26-2 3.31-26.15 5.99-52.69 6.42-57.02l.06-.62c38.82-20.46 67.15 6.3 67.15 6.3s.04.19.1.56c.62 3.74 3.78 25.58-4.82 40.88z" fill="#21188c"/><path d="M153.106 496.164l-4.32-9.26 1.05-36.72 11.12-2.06.39-.07a29.445 29.445 0 0112.62 14.72c2.16 5.4 6.27 21.64 9.74 36.13.16.67.32 1.34.48 2h-28.87l-.93-2z" fill="#21188c"/><path d="M192.616 335.904H50.596a11.504 11.504 0 00-11.49 11.49v142.02a11.504 11.504 0 0011.49 11.49h142.02a11.497 11.497 0 0011.49-11.49v-142.02a11.497 11.497 0 00-11.49-11.49zm9.49 153.51a9.498 9.498 0 01-9.49 9.49H50.596a9.505 9.505 0 01-9.49-9.49v-142.02a9.505 9.505 0 019.49-9.49h142.02a9.498 9.498 0 019.49 9.49zm-109.62 9.49l-.21 2h59.47c.17-.68.34-1.35.53-2zm290.74-163h-142.02a11.504 11.504 0 00-11.49 11.49v142.02a11.504 11.504 0 0011.49 11.49h142.02a11.497 11.497 0 0011.49-11.49v-142.02a11.497 11.497 0 00-11.49-11.49zm9.49 153.51a9.498 9.498 0 01-9.49 9.49h-142.02a9.505 9.505 0 01-9.49-9.49v-142.02a9.505 9.505 0 019.49-9.49h142.02a9.498 9.498 0 019.49 9.49zm-125.28 9.49q.18.645.39 1.29l-.25.71h49.66c.05-.67.09-1.34.14-2zm306.41-163h-142.02a11.497 11.497 0 00-11.49 11.49v142.02a11.497 11.497 0 0011.49 11.49h142.02a11.504 11.504 0 0011.49-11.49v-142.02a11.504 11.504 0 00-11.49-11.49zm9.49 153.51a9.504 9.504 0 01-9.49 9.49h-142.02a9.498 9.498 0 01-9.49-9.49v-142.02a9.498 9.498 0 019.49-9.49h142.02a9.504 9.504 0 019.49 9.49zm-76.92 9.49l-.15 2h43.09c.08-.66.17-1.33.25-2z" fill="#3f3d56"/><path d="M477.221 558.904h-330a8 8 0 110-16h330a8 8 0 110 16z" fill="#ccc"/><path d="M384.721 293.904h-145a8 8 0 010-16h145a8 8 0 010 16z" fill="#21188c"/><path d="M136.09 422.378a4.853 4.853 0 006.347.406c5.788-4.29 10.87-9.632 13.877-16.146 3.446-7.465 3.83-16.626-.324-23.72-3.512-5.998-9.715-9.869-15.896-13.047a28.27 28.27 0 00-7.674-2.957 10.937 10.937 0 00-7.951 1.283 6.868 6.868 0 00-3.1 7.09 25.847 25.847 0 00-11.033-7.405 14.267 14.267 0 00-8.425-.61c-3.923 1.112-6.786 4.597-8.353 8.361a16.724 16.724 0 00-1.262 9.125 11.147 11.147 0 004.87 7.635c3.244 2.006 7.381 1.862 11.106 1.042s7.33-2.246 11.126-2.606 8.024.586 10.335 3.62c1.627 2.137 2.045 4.928 2.41 7.589l1.9 13.84a16.88 16.88 0 001.51 5.782 3.333 3.333 0 00.538.718z" fill="#2f2e41"/></svg>