<svg data-name="Layer 1" xmlns="http://www.w3.org/2000/svg" width="891.295" height="745.194" viewBox="0 0 891.295 745.194"><ellipse cx="418.644" cy="727.194" rx="352" ry="18" fill="#f2f2f2"/><path d="M624.297 172.947h-3.999V63.402A63.402 63.402 0 00556.897 0H324.81a63.402 63.402 0 00-63.402 63.402v600.974a63.402 63.402 0 0063.402 63.402h232.086a63.402 63.402 0 0063.402-63.402V250.923h3.999z" fill="#3f3d56"/><path d="M606.803 63.844v600.09a47.35 47.35 0 01-47.35 47.35h-233.2a47.35 47.35 0 01-47.35-47.35V63.844a47.35 47.35 0 0147.35-47.35h28.29a22.507 22.507 0 0020.83 30.99h132.96a22.507 22.507 0 0020.83-30.99h30.29a47.35 47.35 0 0147.35 47.35z" fill="#fff"/><path d="M531.678 322.6q-2.326 1.215-4.73 2.3-2.19.99-4.45 1.86c-.55.21-1.11.42-1.67.63a89.528 89.528 0 01-13.6 3.75q-3.436.675-6.96 1.06-2.91.33-5.88.47c-1.41.07-2.82.1-4.24.1a89.841 89.841 0 01-16.76-1.57c-1.44-.26-2.85-.57-4.26-.91a88.778 88.778 0 01-19.67-7.26c-.56-.28-1.12-.58-1.68-.87-.83-.44-1.64-.9-2.45-1.38.39-.54.81-1.07 1.24-1.59a53.034 53.034 0 0178.87-4.1 54.277 54.277 0 015.06 5.86c.41.54.8 1.09 1.18 1.65z" fill="#21188c"/><circle cx="492.143" cy="234.764" r="43.91" fill="#2f2e41"/><circle cx="642.499" cy="327.462" r="32.681" transform="rotate(-28.663 413.84 590.84)" fill="#a0616a"/><path d="M522.486 229.503a44.448 44.448 0 01-25.402 7.85 27.238 27.238 0 0010.796 4.442 89.628 89.628 0 01-36.61.206 23.694 23.694 0 01-7.664-2.633 9.699 9.699 0 01-4.73-6.326c-.803-4.589 2.772-8.758 6.488-11.567a47.858 47.858 0 0140.216-8.037c4.493 1.162 8.993 3.124 11.911 6.731s3.783 9.17 1.002 12.885z" fill="#2f2e41"/><path d="M490.147 152.77a89.987 89.987 0 00-46.84 166.83l.58.34q.72.435 1.44.84c.81.48 1.62.94 2.45 1.38.56.29 1.12.59 1.68.87a88.778 88.778 0 0019.67 7.26c1.41.34 2.82.65 4.26.91a89.841 89.841 0 0016.76 1.57c1.42 0 2.83-.03 4.24-.1q2.97-.135 5.88-.47 3.526-.39 6.96-1.06a89.528 89.528 0 0013.6-3.75c.56-.21 1.12-.42 1.67-.63q2.265-.87 4.45-1.86 2.4-1.08 4.73-2.3a90.792 90.792 0 0037.04-35.97c.04-.08.09-.16.13-.24a89.306 89.306 0 009.65-26.41 90.051 90.051 0 00-88.35-107.21zm77.06 132.45c-.08.14-.15.28-.23.41a88.172 88.172 0 01-36.48 35.32q-2.295 1.2-4.67 2.25c-1.31.59-2.65 1.15-4 1.67-.57.22-1.15.44-1.73.64a85.721 85.721 0 01-11.73 3.36 84.695 84.695 0 01-8.95 1.41c-1.85.2-3.73.34-5.62.41-1.21.05-2.43.08-3.65.08a86.762 86.762 0 01-16.22-1.51 85.625 85.625 0 01-9.63-2.36 88.466 88.466 0 01-13.99-5.67c-.52-.27-1.04-.54-1.55-.82-.73-.39-1.47-.79-2.19-1.22-.54-.3-1.08-.62-1.61-.94-.31-.18-.62-.37-.93-.56a88.069 88.069 0 11123.18-32.47z" fill="#3f3d56"/><path d="M469.907 191.46c-.472-4.968-6.559-8.027-11.318-6.526s-7.884 6.293-8.829 11.193a16.057 16.057 0 002.166 12.122c2.405 3.463 6.826 5.623 10.95 4.744 4.707-1.003 7.968-5.6 8.901-10.32s.007-9.59-.919-14.313zm66.983 7.097c-.473-4.968-6.56-8.027-11.319-6.526s-7.884 6.293-8.828 11.193a16.057 16.057 0 002.165 12.122c2.406 3.463 6.827 5.623 10.95 4.744 4.707-1.003 7.968-5.6 8.901-10.32s.007-9.59-.918-14.313z" fill="#2f2e41"/><path d="M334.584 278.739a4.475 4.475 0 01-3.307-1.464l-49.622-54.134a6.02 6.02 0 00-4.426-1.947H15.009A15.026 15.026 0 010 206.184v-94.562a15.026 15.026 0 0115.01-15.01h339.724a15.026 15.026 0 0115.01 15.01v94.563a15.026 15.026 0 01-15.01 15.009h-9.63a6.012 6.012 0 00-6.006 6.005v47.033a4.474 4.474 0 01-2.87 4.196 4.526 4.526 0 01-1.644.31z" fill="#fff"/><path d="M334.584 278.739a4.475 4.475 0 01-3.307-1.464l-49.622-54.134a6.02 6.02 0 00-4.426-1.947H15.009A15.026 15.026 0 010 206.184v-94.562a15.026 15.026 0 0115.01-15.01h339.724a15.026 15.026 0 0115.01 15.01v94.563a15.026 15.026 0 01-15.01 15.009h-9.63a6.012 6.012 0 00-6.006 6.005v47.033a4.474 4.474 0 01-2.87 4.196 4.526 4.526 0 01-1.644.31zM15.009 98.613A13.024 13.024 0 002 111.623v94.562a13.024 13.024 0 0013.01 13.009h262.219a8.024 8.024 0 015.9 2.596l49.622 54.133a2.503 2.503 0 004.348-1.691v-47.033a8.014 8.014 0 018.004-8.005h9.631a13.024 13.024 0 0013.01-13.01v-94.562a13.024 13.024 0 00-13.01-13.01z" fill="#3f3d56"/><circle cx="36.816" cy="125.193" r="13.134" fill="#21188c"/><path d="M339.412 197.867H30.332a7.005 7.005 0 110-14.01h309.08a7.005 7.005 0 010 14.01zm-100.692-29.77H30.332a7.005 7.005 0 110-14.01H238.72a7.005 7.005 0 010 14.01z" fill="#e6e6e6"/><path d="M555.067 599.428a4.474 4.474 0 01-2.87-4.196v-47.033a6.012 6.012 0 00-6.005-6.005h-9.632a15.026 15.026 0 01-15.009-15.01v-94.562a15.026 15.026 0 0115.01-15.01h339.725a15.026 15.026 0 0115.009 15.01v94.563a15.026 15.026 0 01-15.01 15.009H614.067a6.02 6.02 0 00-4.426 1.947l-49.622 54.134a4.475 4.475 0 01-3.307 1.464 4.526 4.526 0 01-1.644-.311z" fill="#fff"/><path d="M555.067 599.428a4.474 4.474 0 01-2.87-4.196v-47.033a6.012 6.012 0 00-6.005-6.005h-9.632a15.026 15.026 0 01-15.009-15.01v-94.562a15.026 15.026 0 0115.01-15.01h339.725a15.026 15.026 0 0115.009 15.01v94.563a15.026 15.026 0 01-15.01 15.009H614.067a6.02 6.02 0 00-4.426 1.947l-49.622 54.134a4.475 4.475 0 01-3.307 1.464 4.526 4.526 0 01-1.644-.311zM536.56 419.613a13.024 13.024 0 00-13.009 13.01v94.562a13.024 13.024 0 0013.01 13.009h9.63a8.014 8.014 0 018.005 8.005v47.033a2.503 2.503 0 004.348 1.69l49.622-54.132a8.024 8.024 0 015.9-2.596h262.22a13.024 13.024 0 0013.009-13.01v-94.562a13.024 13.024 0 00-13.01-13.01z" fill="#3f3d56"/><path d="M449.178 628.71a89.069 89.069 0 01-93.65 1.49 54.129 54.129 0 019.4-12.65 53.433 53.433 0 0183.91 10.57c.11.19.23.39.34.59z" fill="#21188c"/><circle cx="398.443" cy="536.688" r="44.202" fill="#2f2e41"/><circle cx="556.819" cy="629.489" r="32.898" transform="rotate(-61.337 414.38 720.93)" fill="#ffb8b8"/><path d="M367.898 531.393a44.744 44.744 0 0025.57 7.902 27.42 27.42 0 01-10.867 4.472 90.223 90.223 0 0036.853.207 23.852 23.852 0 007.715-2.65 9.764 9.764 0 004.762-6.369c.809-4.619-2.79-8.815-6.53-11.644a48.176 48.176 0 00-40.485-8.09c-4.522 1.17-9.052 3.145-11.99 6.776s-3.807 9.231-1.009 12.97z" fill="#2f2e41"/><path d="M401.147 643.77a89.972 89.972 0 1148.571-14.218 89.88 89.88 0 01-48.57 14.218zm0-178a88.008 88.008 0 1088 88 88.1 88.1 0 00-88-88z" fill="#3f3d56"/><circle cx="563.816" cy="445.193" r="13.134" fill="#21188c"/><path d="M866.412 517.867h-309.08a7.005 7.005 0 110-14.01h309.08a7.005 7.005 0 010 14.01zm-100.692-29.77H557.332a7.005 7.005 0 110-14.01H765.72a7.005 7.005 0 010 14.01z" fill="#e6e6e6"/><ellipse cx="554.644" cy="605.661" rx="24.504" ry="2.72" fill="#f2f2f2"/><ellipse cx="335.644" cy="285.661" rx="24.504" ry="2.72" fill="#f2f2f2"/></svg>