<svg data-name="Layer 1" xmlns="http://www.w3.org/2000/svg" width="888.244" height="478.033" viewBox="0 0 888.244 478.033"><path d="M192 477h-2a94 94 0 00-188 0H0a96 96 0 01192 0zm696 0h-2a94 94 0 10-188 0h-2a96 96 0 11192 0zM653 248h-2c0-94.841-77.16-172-172-172-94.841 0-172 77.159-172 172h-2c0-95.944 78.056-174 174-174s174 78.056 174 174z" fill="#3f3d56"/><circle cx="145.5" cy="39.5" r="39.5" fill="#ff6584"/><path fill="#3f3d56" d="M153.891 311.384l67.861-80.817h133.419l81.534 79.416-1.647 1.059h.588v165.185H153.984V311.042l-.093.342z"/><path fill="#3f3d56" d="M210.102 276.248H194.72V223h15.383z"/><path fill="#21188c" d="M220.694 229.508l83.651 98.073v148.646H153.984V308.924l66.71-79.416z"/><path fill="#3f3d56" d="M254.306 347.044h30.708v31.398h-30.708zm0 42.723h30.708v31.398h-30.708z"/><path fill="#fff" d="M254.306 347.044h30.708v31.398h-30.708zm0 42.723h30.708v31.398h-30.708z"/><path fill="#3f3d56" d="M211.838 347.044h30.708v31.398h-30.708zm0 42.723h30.708v31.398h-30.708z"/><path fill="#fff" d="M211.838 347.044h30.708v31.398h-30.708zm0 42.723h30.708v31.398h-30.708z"/><path fill="#3f3d56" d="M169.369 347.044h30.708v31.398h-30.708zm0 42.723h30.708v31.398h-30.708z"/><path fill="#fff" d="M169.369 347.044h30.708v31.398h-30.708zm0 42.723h30.708v31.398h-30.708z"/><path fill="#21188c" d="M485 40h14v35h-14z"/><path fill="#21188c" d="M379 72h119v405H379z"/><path fill="#3f3d56" d="M498 72h48v405h-48z"/><path fill="#fff" d="M400.5 107h18v18h-18zm29 0h18v18h-18zm29 0h18v18h-18zM401 148h18v18h-18zm29 0h18v18h-18zm29 0h18v18h-18zm-57.5 41h18v18h-18zm29 0h18v18h-18zm29 0h18v18h-18zM402 230h18v18h-18zm29 0h18v18h-18zm29 0h18v18h-18zm-57.5 41h18v18h-18zm29 0h18v18h-18zm29 0h18v18h-18zM403 312h18v18h-18zm29 0h18v18h-18zm29 0h18v18h-18zm-57.5 41h18v18h-18zm29 0h18v18h-18zm29 0h18v18h-18zM404 394h18v18h-18zm29 0h18v18h-18zm0 48h18v34h-18zm29-48h18v18h-18z"/><path fill="#3f3d56" d="M498 40h8v34h-8z"/><path fill="#21188c" d="M635 218h14v20.744h-14z"/><path fill="#21188c" d="M529 236.966h119V477H529z"/><path fill="#3f3d56" d="M648 236.966h48V477h-48z"/><path fill="#fff" d="M552.5 271h18v18h-18zm29 0h18v18h-18zm29 0h18v18h-18zM553 312h18v18h-18zm29 0h18v18h-18zm29 0h18v18h-18zm-57.5 41h18v18h-18zm29 0h18v18h-18zm29 0h18v18h-18zM554 394h18v18h-18zm29 0h18v18h-18zm0 48h18v34h-18zm29-48h18v18h-18z"/><path fill="#3f3d56" d="M648 218h8v20.151h-8zM.244 475.792h888v2.241h-888z"/><circle cx="732.66" cy="404.041" r="26.041" fill="#21188c"/><path d="M752.03 386.648a26.043 26.043 0 01-43.39 27.56 26.043 26.043 0 1043.39-27.56z" opacity=".2"/><path fill="#3f3d56" d="M732.731 404.041h.072l1.287 73.829h-2.718l1.359-73.829z"/><path fill="#3f3d56" d="M736.873 443.116l.6 1.14-4.305 2.266-.6-1.14z"/><circle cx="809.218" cy="365.599" r="39.599" fill="#21188c"/><path d="M838.675 339.15a39.602 39.602 0 01-65.984 41.91 39.603 39.603 0 1065.984-41.91z" opacity=".2"/><path fill="#3f3d56" d="M809.327 365.599h.109l1.958 112.271h-4.134l2.067-112.271z"/><path fill="#3f3d56" d="M815.625 425.02l.912 1.732-6.546 3.446-.912-1.732z"/><circle cx="26.66" cy="403.041" r="26.041" fill="#21188c"/><path d="M46.03 385.648a26.043 26.043 0 01-43.391 27.56 26.043 26.043 0 1043.391-27.56z" opacity=".2"/><path fill="#3f3d56" d="M26.731 403.041h.072l1.287 73.829h-2.718l1.359-73.829z"/><path fill="#3f3d56" d="M30.873 442.116l.6 1.14-4.305 2.266-.6-1.14zm575.54-404.78l9.206-7.363c-7.151-.789-10.09 3.111-11.292 6.198-5.587-2.32-11.67.72-11.67.72l18.42 6.688a13.938 13.938 0 00-4.664-6.243zm-462 37l9.206-7.363c-7.151-.789-10.09 3.111-11.292 6.198-5.587-2.32-11.67.72-11.67.72l18.42 6.688a13.938 13.938 0 00-4.664-6.243zm602 38l9.206-7.363c-7.151-.789-10.09 3.111-11.292 6.198-5.587-2.32-11.67.72-11.67.72l18.42 6.688a13.938 13.938 0 00-4.664-6.243zm-526-58l9.206-7.363c-7.151-.789-10.09 3.111-11.292 6.198-5.587-2.32-11.67.72-11.67.72l18.42 6.688a13.938 13.938 0 00-4.664-6.243zm17 80l9.206-7.363c-7.151-.789-10.09 3.111-11.292 6.198-5.587-2.32-11.67.72-11.67.72l18.42 6.688a13.938 13.938 0 00-4.664-6.243zm358 42l9.206-7.363c-7.151-.789-10.09 3.111-11.292 6.198-5.587-2.32-11.67.72-11.67.72l18.42 6.688a13.938 13.938 0 00-4.664-6.243zM106 456H44v2h9.669v19h2v-19h37.662v19h2v-19H106v-2zm63 8a13.918 13.918 0 00-6.97 1.87A14.982 14.982 0 00137 477h45.95A13.99 13.99 0 00169 464zm237 0a13.918 13.918 0 00-6.97 1.87A14.982 14.982 0 00374 477h45.95A13.99 13.99 0 00406 464zm155 0a13.918 13.918 0 00-6.97 1.87A14.982 14.982 0 00529 477h45.95A13.99 13.99 0 00561 464zm204 0a13.918 13.918 0 00-6.97 1.87A14.982 14.982 0 00733 477h45.95A13.99 13.99 0 00765 464zm98 0a13.918 13.918 0 00-6.97 1.87A14.982 14.982 0 00831 477h45.95A13.99 13.99 0 00863 464zm-734-57h-16v16h7.417v53.912h2V423H129v-16zm-84.878 43.016h62v2h-62zm0-5h62v2h-62zm0-5h62v2h-62z"/></svg>