<svg data-name="Layer 1" xmlns="http://www.w3.org/2000/svg" width="897.5" height="585.991" viewBox="0 0 897.5 585.991"><path d="M596.985 536.185l-1.118-1.659q2.479-1.67 4.922-3.389l1.15 1.636q-2.458 1.73-4.954 3.412zm-161.353 49.806l-.014-2c4.044-.029 8.132-.142 12.15-.336l.096 1.998c-4.045.195-8.16.309-12.232.338zm-12.235-.163c-4.06-.138-8.171-.362-12.218-.667l.15-1.994c4.02.303 8.103.526 12.136.662zm36.67-1.017l-.178-1.993c4.014-.36 8.077-.81 12.076-1.338l.262 1.982a293.46 293.46 0 01-12.16 1.349zM399 583.989a293.254 293.254 0 01-12.12-1.679l.315-1.975c3.973.636 8.024 1.197 12.038 1.668zm85.32-2.382l-.344-1.97c3.968-.694 7.98-1.482 11.922-2.344l.427 1.955c-3.97.867-8.009 1.66-12.005 2.359zm-109.48-1.482a292.61 292.61 0 01-11.938-2.688l.48-1.94a291.17 291.17 0 0011.856 2.669zm133.38-3.74l-.508-1.934a290.18 290.18 0 0011.684-3.336l.59 1.91a292.386 292.386 0 01-11.766 3.36zm-157.16-2.144a292.875 292.875 0 01-11.694-3.691l.642-1.895a290.002 290.002 0 0011.613 3.666zm180.54-5.068l-.67-1.884a290.17 290.17 0 0011.363-4.308l.748 1.855a291.668 291.668 0 01-11.442 4.337zm-203.76-2.803a292.371 292.371 0 01-11.335-4.661l.799-1.833a291.005 291.005 0 0011.258 4.629zm226.45-6.348l-.826-1.82a291.586 291.586 0 0010.962-5.248l.902 1.785a293.15 293.15 0 01-11.038 5.283zm-248.913-3.445a293.788 293.788 0 01-10.9-5.594l.95-1.76a292.397 292.397 0 0010.826 5.556zm270.758-7.578l-.976-1.746a291.785 291.785 0 0010.486-6.146l1.047 1.704a294.91 294.91 0 01-10.557 6.188zm-292.311-4.061a294.816 294.816 0 01-10.39-6.485l1.094-1.674a292.537 292.537 0 0010.318 6.44zm-20.5-13.395a296.465 296.465 0 01-9.81-7.325l1.23-1.577a294.297 294.297 0 009.744 7.275zm-19.306-15.05c-3.1-2.63-6.184-5.36-9.166-8.112l1.356-1.47a293.205 293.205 0 009.104 8.057zm-17.985-16.596a296.213 296.213 0 01-8.46-8.842l1.474-1.352a293.863 293.863 0 008.402 8.782zm-16.543-18.025a296.232 296.232 0 01-7.694-9.51l1.58-1.226a294.61 294.61 0 007.642 9.446zm-14.985-19.331a294.462 294.462 0 01-6.875-10.114l1.677-1.09a292.826 292.826 0 006.828 10.045zm-13.322-20.503a293.529 293.529 0 01-6.006-10.647l1.762-.947a291.2 291.2 0 005.965 10.575zm-11.56-21.535a292.037 292.037 0 01-5.093-11.107l1.836-.795a290.624 290.624 0 005.057 11.03zm-9.713-22.415a292.263 292.263 0 01-4.145-11.5l1.895-.64a290.444 290.444 0 004.116 11.422zm-7.838-23.285q-.838-2.887-1.618-5.8l1.932-.517q.775 2.892 1.607 5.76zm570.621-114.415q-.332-2.977-.723-5.935l1.982-.263q.395 2.98.729 5.976zm-25.877 161.268l-1.796-.88a291.088 291.088 0 004.963-10.683l1.83.805a292.704 292.704 0 01-4.997 10.758zm9.552-21.71l-1.861-.731a289.63 289.63 0 004.077-11.052l1.89.653a291.316 291.316 0 01-4.106 11.13zm7.754-22.416l-1.915-.576a290.478 290.478 0 003.163-11.35l1.937.498a293.449 293.449 0 01-3.185 11.428zm5.9-22.975l-1.955-.418a291.158 291.158 0 002.228-11.57l1.972.338a292.648 292.648 0 01-2.244 11.65zm4.013-23.381l-1.983-.258c.504-3.871.936-7.812 1.284-11.713l1.992.177c-.35 3.929-.785 7.896-1.293 11.794zm2.11-23.63l-1.997-.098c.19-3.899.305-7.862.34-11.78l2 .018c-.036 3.944-.15 7.935-.343 11.86zm-1.785-23.662c-.12-3.91-.321-7.868-.598-11.764l1.995-.141c.278 3.922.48 7.907.602 11.843zm-35.874 153.55l-1.739-.987q1.474-2.597 2.896-5.227l1.76.951q-1.432 2.648-2.917 5.263zM170.673 167.929l-1.806-.86q1.297-2.72 2.647-5.408l1.787.897q-1.34 2.67-2.628 5.37zm8.213-15.94l-1.749-.97a294.547 294.547 0 016.056-10.402l1.708 1.042a292.18 292.18 0 00-6.015 10.33zm504.064-8.927a292.116 292.116 0 00-6.373-10.105l1.67-1.101c2.2 3.336 4.36 6.76 6.417 10.174zm-491.615-11.48l-1.663-1.11a295.132 295.132 0 016.89-9.873l1.617 1.178a294.048 294.048 0 00-6.844 9.805zm478.46-8.46a294.119 294.119 0 00-7.18-9.551l1.574-1.235a296.252 296.252 0 017.23 9.617zm-464.378-10.86l-1.567-1.244c2.484-3.13 5.066-6.25 7.673-9.273l1.514 1.306a293.231 293.231 0 00-7.62 9.21zm449.634-7.942a293.732 293.732 0 00-7.937-8.935l1.467-1.358a296.108 296.108 0 017.992 8.995zM221.028 94.16l-1.46-1.368a295.984 295.984 0 018.402-8.615l1.403 1.425a294.36 294.36 0 00-8.345 8.558zm417.79-7.379a293.823 293.823 0 00-8.641-8.259l1.352-1.474a296.316 296.316 0 018.7 8.316zM238.06 77.394l-1.344-1.482c2.957-2.681 6.01-5.34 9.076-7.9l1.282 1.535a293.785 293.785 0 00-9.014 7.847zm383.144-6.772a293.947 293.947 0 00-9.288-7.528l1.228-1.579a295.48 295.48 0 019.351 7.58zm-364.803-8.547l-1.219-1.586c3.165-2.43 6.425-4.83 9.69-7.132l1.152 1.635a294.293 294.293 0 00-9.623 7.083zm345.927-6.123a293.65 293.65 0 00-9.874-6.744l1.094-1.675a295.407 295.407 0 019.941 6.79zm-326.4-7.642l-1.084-1.681a295.041 295.041 0 0110.239-6.313l1.014 1.724a292.825 292.825 0 00-10.169 6.27zm306.382-5.436a291.127 291.127 0 00-10.396-5.912l.952-1.759a293.049 293.049 0 0110.468 5.953zm-285.796-6.682l-.942-1.764a293.289 293.289 0 0110.72-5.45l.87 1.801a291.985 291.985 0 00-10.648 5.413zm264.768-4.71a291.948 291.948 0 00-10.85-5.036l.804-1.831a291.884 291.884 0 0110.925 5.071zm-243.261-5.67l-.795-1.836a294.065 294.065 0 0111.13-4.547l.719 1.867a290.39 290.39 0 00-11.054 4.516zm221.36-3.95a290.813 290.813 0 00-11.233-4.124l.65-1.892a291.642 291.642 0 0111.31 4.153zm-199.077-4.62l-.64-1.894a291.583 291.583 0 0111.464-3.611l.561 1.92a290.174 290.174 0 00-11.385 3.585zm176.448-3.16a290.276 290.276 0 00-11.54-3.18l.492-1.939a293.28 293.28 0 0111.62 3.203zm-153.541-3.538l-.482-1.941c3.874-.96 7.817-1.853 11.719-2.65l.4 1.959c-3.874.793-7.79 1.678-11.637 2.632zM493.55 8.202a290.938 290.938 0 00-11.745-2.212l.33-1.973c3.95.66 7.928 1.41 11.826 2.228zM386.606 5.758l-.32-1.975c3.941-.638 7.95-1.203 11.916-1.679l.238 1.985a292.52 292.52 0 00-11.834 1.669zm83.373-1.495a292.453 292.453 0 00-11.886-1.24l.166-1.993c3.988.334 8.015.754 11.969 1.249zm-59.646-1.355l-.157-1.994c3.98-.313 8.02-.549 12.013-.7l.075 1.998c-3.964.15-7.979.385-11.931.696zm35.832-.638A298.9 298.9 0 00434.216 2l.005-2c3.995.01 8.042.101 12.03.271zm245.603 156.514q-1.382-2.654-2.816-5.275l1.754-.96q1.445 2.64 2.836 5.31z" fill="#ccc"/><path d="M369.5 195.999H351v156.5a15.018 15.018 0 01-15 15H33.5v13.5a17.024 17.024 0 0017 17h319a17.024 17.024 0 0017-17v-168a17.024 17.024 0 00-17-17z" fill="#f2f2f2"/><path d="M336 167.499H17a17.024 17.024 0 00-17 17v168a17.024 17.024 0 0017 17h319a17.024 17.024 0 0017-17v-168a17.024 17.024 0 00-17-17zm15 185a15.018 15.018 0 01-15 15H17a15.018 15.018 0 01-15-15v-168a15.018 15.018 0 0115-15h319a15.018 15.018 0 0115 15z" fill="#3f3d56"/><path d="M311.941 291.499h-112a8 8 0 110-16h112a8 8 0 010 16zm-70-34h-42a8 8 0 110-16h42a8 8 0 010 16z" fill="#ccc"/><path d="M149.5 331.499h-102a8.51 8.51 0 01-8.5-8.5v-113a8.51 8.51 0 018.5-8.5h102a8.51 8.51 0 018.5 8.5v113a8.51 8.51 0 01-8.5 8.5z" fill="#21188c"/><path d="M100.044 307.962c-2.25-.063-5.049-.141-7.204-1.716a5.533 5.533 0 01-2.177-4.13 3.721 3.721 0 011.266-3.057 4.802 4.802 0 014.543-.654l-1.836-13.418 1.347-.185 2.159 15.775-1.126-.516c-1.305-.599-3.096-.903-4.209.037a2.39 2.39 0 00-.784 1.97 4.181 4.181 0 001.62 3.08c1.677 1.225 3.908 1.383 6.439 1.454zm-19.401-21.818h7.327v1.36h-7.327zm23.127 0h7.327v1.36h-7.327zm-35.857-18.786c-5.9-.673-10.47-6.327-10.973-12.063-.597-6.824 3.377-13.305 8.83-17.135 5.702-4.004 12.806-5.677 19.679-6.045a54.085 54.085 0 0136.97 12.185c5.15 4.278 9.96 9.727 11.783 16.309 1.583 5.715.295 12.19-4.303 16.194a10.868 10.868 0 01-8.34 2.568c-3.566-.37-6.857-2.246-9.706-4.318-5.542-4.029-10.092-9.642-16.843-11.748-4.95-1.544-11.375-.185-14.4 4.292a8.149 8.149 0 00-1.301 3.414 1.057 1.057 0 00.712 1.255 1.027 1.027 0 001.255-.712c.795-5.64 7.728-7.743 12.593-6.455 7.094 1.877 11.856 8.207 17.676 12.23a21.48 21.48 0 0010.294 4.108 12.782 12.782 0 008.981-2.76c4.972-3.926 6.874-10.679 5.774-16.759-1.273-7.04-6.012-13.075-11.211-17.746a56.083 56.083 0 00-38.327-14.159c-7.193.165-14.697 1.65-20.894 5.452-6.01 3.687-10.655 9.856-11.263 17.027-.534 6.312 2.852 12.914 8.665 15.68a13.57 13.57 0 004.349 1.226c1.302.149 1.292-1.893 0-2.04z" fill="#3f3d56"/><path d="M878.5 460.999h-16.06v52.32a17.024 17.024 0 01-17 17H444.5v7.68a19.017 19.017 0 0019 19h415a19.017 19.017 0 0019-19v-58a19.017 19.017 0 00-19-19z" fill="#f2f2f2"/><path d="M845.44 436.319h-415a19.017 19.017 0 00-19 19v58a19.017 19.017 0 0019 19h415a19.017 19.017 0 0019-19v-58a19.017 19.017 0 00-19-19zm17 77a17.024 17.024 0 01-17 17h-415a17.024 17.024 0 01-17-17v-58a17.024 17.024 0 0117-17h415a17.024 17.024 0 0117 17z" fill="#3f3d56"/><path d="M503.271 452.322a32 32 0 1032 32 32.037 32.037 0 00-32-32z" fill="#21188c"/><path d="M796.61 511.322h-229a8 8 0 110-16h229a8 8 0 010 16zm-115-34h-114a8 8 0 110-16h114a8 8 0 010 16z" fill="#ccc"/><path data-name="Path 395" d="M501.101 498.314a3.812 3.812 0 01-2.293-.762l-.04-.031-8.639-6.608a3.839 3.839 0 014.671-6.093l5.595 4.29 13.221-17.247a3.837 3.837 0 015.38-.711l-.081.115.084-.114a3.842 3.842 0 01.71 5.38l-15.55 20.28a3.84 3.84 0 01-3.054 1.496z" fill="#fff"/><path d="M819.5 175.999h-2.12q.06.645.06 1.32v58a17.024 17.024 0 01-17 17H601.5v.68c0 .44.02.88.05 1.32a19.004 19.004 0 0018.95 17.68h199a19.017 19.017 0 0019-19v-58a19.017 19.017 0 00-19-19z" fill="#f2f2f2"/><path d="M819.39 175.999a19.004 19.004 0 00-18.95-17.68h-199a19.017 19.017 0 00-19 19v58a19.017 19.017 0 0019 19h199a19.017 19.017 0 0019-19v-58c0-.44-.02-.88-.05-1.32zm-1.95 59.32a17.024 17.024 0 01-17 17h-199a17.024 17.024 0 01-17-17v-58a17.024 17.024 0 0117-17h199a17.016 17.016 0 0116.94 15.68q.06.645.06 1.32z" fill="#3f3d56"/><path d="M749.941 231.322h-98a8 8 0 110-16h98a8 8 0 010 16zm-30-34h-68a8 8 0 110-16h68a8 8 0 010 16z" fill="#ccc"/></svg>