<svg data-name="Layer 1" xmlns="http://www.w3.org/2000/svg" width="876" height="554" viewBox="0 0 876 554"><path d="M354 256H17a17.02 17.02 0 01-17-17V50a17.02 17.02 0 0117-17h337a17.02 17.02 0 0117 17v189a17.02 17.02 0 01-17 17zM17 35A15.017 15.017 0 002 50v189a15.017 15.017 0 0015 15h337a15.017 15.017 0 0015-15V50a15.017 15.017 0 00-15-15z" fill="#e6e6e6"/><path d="M268.6 108.313h-65a4.5 4.5 0 100 9h65a4.5 4.5 0 000-9zm63.36 28.5H202.74c-2.01 0-3.64 2.02-3.64 4.5s1.63 4.5 3.64 4.5h129.22c2.01 0 3.64-2.02 3.64-4.5s-1.63-4.5-3.64-4.5zm0 29.187H202.74c-2.01 0-3.64 2.02-3.64 4.5s1.63 4.5 3.64 4.5h129.22c2.01 0 3.64-2.02 3.64-4.5s-1.63-4.5-3.64-4.5zM154 214.5H42A10.512 10.512 0 0131.5 204V79A10.512 10.512 0 0142 68.5h112A10.512 10.512 0 01164.5 79v125a10.512 10.512 0 01-10.5 10.5z" fill="#e6e6e6"/><circle cx="362" cy="36" r="36" fill="#e6e6e6"/><path d="M832 256H495a17.02 17.02 0 01-17-17V50a17.02 17.02 0 0117-17h337a17.02 17.02 0 0117 17v189a17.02 17.02 0 01-17 17zM495 35a15.017 15.017 0 00-15 15v189a15.017 15.017 0 0015 15h337a15.017 15.017 0 0015-15V50a15.017 15.017 0 00-15-15z" fill="#3f3d56"/><path d="M746.6 108.313h-65a4.5 4.5 0 000 9h65a4.5 4.5 0 000-9zm63.36 28.5H680.74c-2.01 0-3.64 2.02-3.64 4.5s1.63 4.5 3.64 4.5h129.22c2.01 0 3.64-2.02 3.64-4.5s-1.63-4.5-3.64-4.5zm0 29.187H680.74c-2.01 0-3.64 2.02-3.64 4.5s1.63 4.5 3.64 4.5h129.22c2.01 0 3.64-2.02 3.64-4.5s-1.63-4.5-3.64-4.5z" fill="#3f3d56"/><path d="M632 214.5H520a10.512 10.512 0 01-10.5-10.5V79A10.512 10.512 0 01520 68.5h112A10.512 10.512 0 01642.5 79v125a10.512 10.512 0 01-10.5 10.5z" fill="#21188c"/><circle cx="840" cy="36" r="36" fill="#21188c"/><path d="M837.976 50.573a4.525 4.525 0 01-2.722-.904l-.05-.037-10.253-7.85a4.555 4.555 0 115.542-7.232l6.641 5.092 15.695-20.468a4.555 4.555 0 016.387-.843l-.098.133.1-.131a4.56 4.56 0 01.843 6.387l-18.46 24.075a4.557 4.557 0 01-3.625 1.778z" fill="#fff"/><path d="M354 554H17a17.02 17.02 0 01-17-17V348a17.02 17.02 0 0117-17h337a17.02 17.02 0 0117 17v189a17.02 17.02 0 01-17 17zM17 333a15.017 15.017 0 00-15 15v189a15.017 15.017 0 0015 15h337a15.017 15.017 0 0015-15V348a15.017 15.017 0 00-15-15z" fill="#3f3d56"/><path d="M268.6 406.313h-65a4.5 4.5 0 100 9h65a4.5 4.5 0 000-9zm63.36 28.5H202.74c-2.01 0-3.64 2.02-3.64 4.5s1.63 4.5 3.64 4.5h129.22c2.01 0 3.64-2.02 3.64-4.5s-1.63-4.5-3.64-4.5zm0 29.187H202.74c-2.01 0-3.64 2.02-3.64 4.5s1.63 4.5 3.64 4.5h129.22c2.01 0 3.64-2.02 3.64-4.5s-1.63-4.5-3.64-4.5z" fill="#3f3d56"/><path d="M154 512.5H42A10.512 10.512 0 0131.5 502V377A10.512 10.512 0 0142 366.5h112a10.512 10.512 0 0110.5 10.5v125a10.512 10.512 0 01-10.5 10.5z" fill="#21188c"/><circle cx="362" cy="334" r="36" fill="#21188c"/><path d="M359.976 348.573a4.525 4.525 0 01-2.722-.904l-.05-.037-10.253-7.85a4.555 4.555 0 115.542-7.232l6.641 5.092 15.695-20.468a4.555 4.555 0 016.387-.843l-.098.133.1-.131a4.56 4.56 0 01.843 6.387l-18.46 24.075a4.557 4.557 0 01-3.625 1.778z" fill="#fff"/><path d="M832 554H495a17.02 17.02 0 01-17-17V348a17.02 17.02 0 0117-17h337a17.02 17.02 0 0117 17v189a17.02 17.02 0 01-17 17zM495 333a15.017 15.017 0 00-15 15v189a15.017 15.017 0 0015 15h337a15.017 15.017 0 0015-15V348a15.017 15.017 0 00-15-15z" fill="#3f3d56"/><path d="M746.6 406.313h-65a4.5 4.5 0 000 9h65a4.5 4.5 0 000-9zm63.36 28.5H680.74c-2.01 0-3.64 2.02-3.64 4.5s1.63 4.5 3.64 4.5h129.22c2.01 0 3.64-2.02 3.64-4.5s-1.63-4.5-3.64-4.5zm0 29.187H680.74c-2.01 0-3.64 2.02-3.64 4.5s1.63 4.5 3.64 4.5h129.22c2.01 0 3.64-2.02 3.64-4.5s-1.63-4.5-3.64-4.5z" fill="#3f3d56"/><path d="M632 512.5H520a10.512 10.512 0 01-10.5-10.5V377a10.512 10.512 0 0110.5-10.5h112a10.512 10.512 0 0110.5 10.5v125a10.512 10.512 0 01-10.5 10.5z" fill="#21188c"/><circle cx="840" cy="334" r="36" fill="#21188c"/><path d="M837.976 348.573a4.525 4.525 0 01-2.722-.904l-.05-.037-10.253-7.85a4.555 4.555 0 115.542-7.232l6.641 5.092 15.695-20.468a4.555 4.555 0 016.387-.843l-.098.133.1-.131a4.56 4.56 0 01.843 6.387l-18.46 24.075a4.557 4.557 0 01-3.625 1.778zm-258.273-158.91c-2.522-.07-5.661-.159-8.078-1.924a6.204 6.204 0 01-2.441-4.633 4.173 4.173 0 011.419-3.427 5.385 5.385 0 015.094-.733l-2.059-15.048 1.512-.207 2.42 17.69-1.262-.579c-1.463-.671-3.472-1.012-4.72.042a2.68 2.68 0 00-.88 2.208 4.689 4.689 0 001.817 3.455c1.88 1.374 4.383 1.551 7.22 1.631zm-21.757-24.467h8.217v1.526h-8.217zm25.936 0h8.217v1.526h-8.217zm-40.212-21.068c-6.617-.754-11.741-7.094-12.304-13.527-.67-7.653 3.787-14.921 9.901-19.216 6.394-4.49 14.361-6.366 22.069-6.78a60.652 60.652 0 0141.459 13.666c5.775 4.797 11.17 10.908 13.214 18.288 1.775 6.41.33 13.672-4.825 18.161a12.187 12.187 0 01-9.352 2.88c-4-.416-7.691-2.519-10.886-4.842-6.215-4.518-11.317-10.813-18.888-13.174-5.552-1.732-12.756-.208-16.149 4.813a9.138 9.138 0 00-1.459 3.828 1.185 1.185 0 00.8 1.408 1.151 1.151 0 001.407-.8c.89-6.323 8.666-8.683 14.122-7.238 7.955 2.105 13.295 9.204 19.822 13.714a24.088 24.088 0 0011.544 4.608 14.334 14.334 0 0010.072-3.094c5.576-4.403 7.708-11.976 6.475-18.795-1.428-7.895-6.742-14.662-12.573-19.901a62.893 62.893 0 00-42.98-15.878c-8.067.185-16.483 1.85-23.431 6.113-6.74 4.135-11.95 11.054-12.631 19.095-.6 7.079 3.198 14.482 9.717 17.583a15.217 15.217 0 004.876 1.377c1.461.166 1.45-2.124 0-2.289zm36.033 339.535c-2.522-.07-5.661-.159-8.078-1.924a6.204 6.204 0 01-2.441-4.633 4.173 4.173 0 011.419-3.427 5.385 5.385 0 015.094-.733l-2.059-15.048 1.512-.207 2.42 17.69-1.262-.579c-1.463-.671-3.472-1.012-4.72.042a2.68 2.68 0 00-.88 2.208 4.689 4.689 0 001.817 3.455c1.88 1.374 4.383 1.551 7.22 1.631zm-21.757-24.467h8.217v1.526h-8.217zm25.936 0h8.217v1.526h-8.217zm-40.212-21.068c-6.617-.754-11.741-7.094-12.304-13.527-.67-7.653 3.787-14.921 9.901-19.216 6.394-4.49 14.361-6.366 22.069-6.78a60.652 60.652 0 0141.459 13.666c5.775 4.797 11.17 10.908 13.214 18.288 1.775 6.41.33 13.672-4.825 18.161a12.187 12.187 0 01-9.352 2.88c-4-.416-7.691-2.519-10.886-4.842-6.215-4.518-11.317-10.813-18.888-13.174-5.552-1.732-12.756-.208-16.149 4.813a9.138 9.138 0 00-1.459 3.828 1.185 1.185 0 00.8 1.408 1.151 1.151 0 001.407-.8c.89-6.323 8.666-8.683 14.122-7.238 7.955 2.105 13.295 9.204 19.822 13.714a24.088 24.088 0 0011.544 4.608 14.334 14.334 0 0010.072-3.094c5.576-4.403 7.708-11.976 6.475-18.795-1.428-7.895-6.742-14.662-12.573-19.901a62.893 62.893 0 00-42.98-15.878c-8.067.185-16.483 1.85-23.431 6.113-6.74 4.135-11.95 11.054-12.631 19.095-.6 7.079 3.198 14.482 9.717 17.583a15.217 15.217 0 004.876 1.377c1.461.166 1.45-2.124 0-2.289zM96.703 483.663c-2.522-.07-5.661-.159-8.078-1.924a6.204 6.204 0 01-2.441-4.633 4.173 4.173 0 011.419-3.427 5.385 5.385 0 015.094-.733l-2.059-15.048 1.512-.207 2.42 17.69-1.262-.579c-1.463-.671-3.472-1.012-4.72.042a2.68 2.68 0 00-.88 2.208 4.689 4.689 0 001.817 3.455c1.88 1.374 4.383 1.551 7.22 1.631zm-21.757-24.467h8.217v1.526h-8.217zm25.936 0h8.217v1.526h-8.217zM60.67 438.128c-6.617-.754-11.741-7.094-12.304-13.527-.67-7.653 3.787-14.921 9.901-19.216 6.394-4.49 14.361-6.366 22.069-6.78a60.652 60.652 0 0141.459 13.666c5.775 4.797 11.17 10.908 13.214 18.288 1.775 6.41.33 13.672-4.825 18.161a12.187 12.187 0 01-9.352 2.88c-4-.416-7.691-2.519-10.886-4.842-6.215-4.518-11.317-10.813-18.888-13.174-5.552-1.732-12.756-.208-16.149 4.813a9.138 9.138 0 00-1.459 3.828 1.185 1.185 0 00.8 1.408 1.151 1.151 0 001.407-.8c.89-6.323 8.666-8.683 14.122-7.238 7.955 2.105 13.295 9.204 19.822 13.714a24.088 24.088 0 0011.544 4.608 14.334 14.334 0 0010.072-3.094c5.576-4.403 7.708-11.976 6.475-18.795-1.428-7.895-6.742-14.662-12.573-19.901a62.893 62.893 0 00-42.98-15.878c-8.067.185-16.483 1.85-23.431 6.113-6.74 4.135-11.95 11.054-12.631 19.095-.6 7.079 3.198 14.482 9.717 17.583a15.217 15.217 0 004.876 1.377c1.461.166 1.45-2.124 0-2.289z" fill="#fff"/><path d="M96.703 191.663c-2.522-.07-5.661-.159-8.078-1.924a6.204 6.204 0 01-2.441-4.633 4.173 4.173 0 011.419-3.427 5.385 5.385 0 015.094-.733l-2.059-15.048 1.512-.207 2.42 17.69-1.262-.579c-1.463-.671-3.472-1.012-4.72.042a2.68 2.68 0 00-.88 2.208 4.689 4.689 0 001.817 3.455c1.88 1.374 4.383 1.551 7.22 1.631zm-21.757-24.467h8.217v1.526h-8.217zm25.936 0h8.217v1.526h-8.217zM60.67 146.128c-6.617-.754-11.741-7.094-12.304-13.527-.67-7.653 3.787-14.921 9.901-19.216 6.394-4.49 14.361-6.366 22.069-6.78a60.652 60.652 0 0141.459 13.666c5.775 4.797 11.17 10.908 13.214 18.288 1.775 6.41.33 13.672-4.825 18.161a12.187 12.187 0 01-9.352 2.88c-4-.416-7.691-2.519-10.886-4.842-6.215-4.518-11.317-10.813-18.888-13.174-5.552-1.732-12.756-.208-16.149 4.813a9.138 9.138 0 00-1.459 3.828 1.185 1.185 0 00.8 1.408 1.151 1.151 0 001.407-.8c.89-6.323 8.666-8.683 14.122-7.238 7.955 2.105 13.295 9.204 19.822 13.714a24.088 24.088 0 0011.544 4.608 14.334 14.334 0 0010.072-3.094c5.576-4.403 7.708-11.976 6.475-18.795-1.428-7.895-6.742-14.662-12.573-19.901a62.893 62.893 0 00-42.98-15.878c-8.067.185-16.483 1.85-23.431 6.113-6.74 4.135-11.95 11.054-12.631 19.095-.6 7.079 3.198 14.482 9.717 17.583a15.217 15.217 0 004.876 1.377c1.461.166 1.45-2.124 0-2.289z" fill="#3f3d56"/></svg>